<?xml version="1.0" encoding="utf-8"?>
<!-- Generator: Adobe Illustrator 27.5.0, SVG Export Plug-In . SVG Version: 6.00 Build 0)  -->
<svg version="1.1" id="Layer_1" xmlns="http://www.w3.org/2000/svg" xmlns:xlink="http://www.w3.org/1999/xlink" x="0px" y="0px"
	 viewBox="0 0 773.1 732" style="enable-background:new 0 0 773.1 732;" xml:space="preserve">
<style type="text/css">
	.st0{fill:none;stroke:#D8D9CF;stroke-width:1.1041;stroke-miterlimit:10;stroke-dasharray:13.3061,13.3061;}
	.st1{fill:none;stroke:#D8D9CF;stroke-width:1.1041;stroke-miterlimit:10;stroke-dasharray:13.3231,13.3231;}
	.st2{fill:none;stroke:#D8D9CF;stroke-width:1.1041;stroke-miterlimit:10;stroke-dasharray:13.1305,13.1305;}
	.st3{fill:#1D1D1B;}
	.st4{fill:#FFFFFF;}
	.st5{fill:#D8D9CF;}
</style>
<g>
	<circle class="st0" cx="383.2" cy="366" r="271.1"/>
</g>
<g>
	<circle class="st1" cx="383.2" cy="366" r="233.2"/>
</g>
<g>
	<circle class="st2" cx="383.2" cy="366" r="196.4"/>
</g>
<g>
	<g>
		<g>
			<g id="cara_00000005952767849303784010000008222133850495860613_">
				<path class="st3" d="M539.8,405.5c-1.9-9.3-4.7-18.4-7.3-27.5l0.1,0.1c-10.3-25.9-19-57.9-22.2-85.5
					c-5.3-36.1-34.7-64.8-67.7-78.2c-6.5-2.8-13.3-4-20.3-4c-29.4-3.7-59,1.3-86.9,9.7c-27.5,8.4-49.9,31.4-64.5,56.3
					c-3.7,6.7-8.4,13-9.6,20.9c-1.7,4.6-3.7,9-5.1,13.7c-2.8,10.9-8.2,20.9-12.3,31.2c-2,6.8-3.9,13.7-5.8,20.5
					c-5.3,20.9-14.9,45.9-4.9,66.8c4.2,7.2,13.2,23.7,23.4,21c-0.6-1.2-1.2-2.2-1.9-3.5c1.1-0.6,2.1-1.1,3.1-1.7
					c4.1,5.3,9.3,8.6,14.5,12c5.3,4.3,12.1,1.2,17.6-0.8c1.3-0.3,2.3-0.8,3.2-1.4c2.2,9.3,4.5,14.4,13.8,30.6l0.1,0.1l0.1,0.1
					c2.2,3.4,3.2,7.4,4.2,11.6c0.6,2.6,1.3,5.3,2.2,7.9c3.7,12.8,12,12.8,19.3,12.8c5,0,9.7,0.1,14,3.3l0.1,0.1l0.2,0.1
					c2.4,1.4,5.2,1.8,7.2,2c0.5,0,1,0.1,1.6,0.1c5.3,0,10.6-2,15.9-6c1.6-1.2,7.6-5.2,14.5-9.7c10.3-6.8,22.2-14.6,26.6-18l0.1-0.1
					l0.1-0.1c9-8.1,16.2-17.8,22.2-27.9c3,4.5,6.1,9.1,10.2,12.7c4,3.8,8.4,5.6,13,5.9c4.7-0.2,6.7-0.3,8.2-0.8
					c9.2-2.2,18.2-8.7,24.4-15c7.4-7.2,10.5-17.2,14.7-26.5c1.6,2.1,2.9,4.2,5.4,4.8c9.6,1,18.2-0.9,24.4-9
					C542.3,425.7,542.9,415.7,539.8,405.5z"/>
				<path class="st4" d="M272,331.2c0.6-2.3,1.5-4.5,3.6-5.9c5.4-3.7,10.9-7.4,16.2-11.4c4.7-3.5,10.3-5.4,15.6-7.7
					c6-2.1,12.2-5.3,18.5-5.9c8.7,0.3,16.4-4.3,24.2-7.2c2.3,1.7,0.1,3.3,0.5,5c-3,0.1-4.2,2.1-5.2,4.7c5.7,0,10.9-3.4,16.2-5.1
					c1.7-3.9,7-4,8.6-8.3c0.9-2.2,4.2-2,6,0c5.2,7.8,18.2,17.9,25.4,7.1c2.2,1.8,3.2,4,3,6.9c-0.1,1.2,0.3,2.8,1.1,3.5
					c6.4,5.9,11.6,11.1,19.1,15.8c-0.9,2.9-1.9,5.9-3,9.7c13.4-7.8,2.8-5.3,9.9-13.3c5.4-0.5,7.8,22.2,8.4,26.9
					c-0.4,8.2-4.7,16-3.3,24.5c2.2,17.3,5.3,20.3-12.1,29c0.3,2.8,0.9,5.8,3.3,8.3c5.7,8.3,12.6,15.2,21.3,20.3
					c-10.2,21.5-20.2,43.6-38.3,59.8c-7.5,5.7-37,24.6-41.1,27.7c-4.6,3.4-9.7,5.9-15.7,5.4c-2.1-0.2-4.2-0.6-6-1.6
					c-12.3-9-27.1,3.8-32.4-14.8c-2.5-6.7-2.8-14.1-6.7-20.2c-13.3-23.2-11.9-23-17.2-46.5c-3.7-21.4-19.1-39.8-15.9-62.1
					c1.1-9.7,2.8-19.5,0.5-29C276.9,341,269.9,338.9,272,331.2z"/>
				<g>
					<g>
						<g>
							<path class="st3" d="M347.8,415.6c1.6-0.3,2.3-0.3,3.9-0.5c2.8-5.5,2.3-7.5-3.3-11.6c2.2-2.9,4.2-0.6,5.9,2.4
								c1.6,2.8,2.5,5.9,1.7,7.7c-0.8,3.9-2.5,6.6-5.3,8.7c-2.8,2.1-6.1,3.4-9.7,4.3c0.8,3.6,3.7,6.5,7.2,8.6
								c3.3,2.1,7.2,3.4,10,5.3c3.6,2,7.6,3.3,11.4,4.8c2.2,0.9,2.8,3.1,2,5.2c-4.4,1.6-8.2-0.1-11.6-2.8c-2.7-2.1-5.7-3.8-8.6-5.4
								c-3-1.6-5.6-3.6-8-5.8c-2.5-2.2-5-4.2-7.6-6.2c-1.8,3.2,1.3,9.4,1.6,13.2c0.4,2,1.1,3.3,3.3,3.7c3,0.5,5.9,1.6,8.8,2.2
								s6,0.9,9,1.5c2.2,0.4,3.1,1.6,3.3,3.6c0.2,2.8-0.3,2.8-3.1,3.7c-3.5,1.2-7.1,2.6-10.6,3.6c-3.6,0.9-7.2,2.4-10.9,2.4
								c-3.8-0.1-6.7,0.3-9.6,0.6c-2.8,0.3-5.8,0.3-9.1-2.4c-4.8-3.8-6.1,0.1-8.8-8.5c3.3-2.1,6-3.1,8-4.1c3.2-1.7,4.2-3.3,5.2-6.7
								c0.6-2,1.2-4.5,1.6-8.5c-2.3,2-4.6,3.6-6.6,5.7c-2.1,2.2-3.8,4.7-5.9,6.7c-2.2,2.1-4.1,4-6.8,5.5c0.6-5.3,1.9-7.5,4.7-7.5
								c2.5-2.9,4.9-5.7,7.4-8.5c2.4-2.8,5.3-5.7,7.8-8.6c-3.7-0.7-6.8-1.7-9-3.2c-2.7-1.9-3.9-4.4-4.3-7.8c-0.3-2.6-1-5.8-0.3-9.3
								c0.3-2.9,0.7-5.9,1-8.8c0.3-2.9,1.1-5.8,1.5-8.7s0.9-5.9,1.1-8.8c0.6-3.8,1.8-7.3,2.7-10.9c0.9-3.7,1.6-7.4,2.4-11
								c0.8-3.7,1-7.5,1.5-11.3c0.4-2.4,0.1-4.7-1.4-6.6c-2.1-2.5-5.1-3.7-7.8-5.1c-2.8-1.4-5.6-2.3-8.7-2.8
								c-3.1-0.4-6.3-0.4-9.4-0.1c-4-3.2-7.1-0.1-10.4,0.8c-2.1,0.5-3.9,2.1-6.3,3.3c-2.1-1.2-4.7-5.1-0.9-5.6
								c2.1,0,3.7-0.7,5.3-1.6c2.6-1.6,5.2-3.1,8.1-3.9c2.9-0.7,5.9-0.9,9-0.8c3,0.2,6,0.5,8.9,1.5s5.1,2.7,7.5,4.5
								c-0.5,0.9-0.5,1.5-0.9,2.2c3.9,2.2,6.3,4.7,7.8,7.3c1.9,3.2,2.4,6.6,2.2,10.4c-0.3,3.4-0.9,7.1-1.9,10.7
								c-1,3.4-1.9,7.1-2.8,10.6c-1,3.7-2.7,7.2-2.8,10.6c-0.3,3.3,0,6.6-0.4,9.9c-0.4,3.3-0.6,6.6-0.9,9.8
								c-0.3,3.3-0.9,6.6-1.2,9.8c-0.3,4.6,1.3,7.3,4.3,8.6c2.9,1.3,6.9,0.9,10.3,1.3c6.2,1.2,6.8-2.4,9-6.9
								C339.7,412.4,346.9,411.2,347.8,415.6z M329.4,428.2c-0.5,2.8-1.7,4.9-2.2,7.3c-0.5,2.5-0.9,4.9,0,7.7c1,3.9,3,5,7.2,3.9
								c-0.6-3.1-1-6.6-1.2-9.7c-0.3-3.1-0.5-6.3-0.3-9.5C331.3,427.8,330.3,428.2,329.4,428.2z M347.6,420.3
								c-2-0.4-2.5-0.8-2.8,1.3C346.4,422,346.8,422.2,347.6,420.3z"/>
						</g>
						<g>
							<path class="st3" d="M423.1,341c-2.8-2.2-5.8-4.5-9.1-6c-3.3-1.6-6.7-2.9-10.3-3.9c-3.5-0.9-7.2-2.1-10.9-2.3
								c-3.7-0.3-7.5,0-11.1,0.5c-3.7,0.5-7.2,1.6-10.7,3.1c-3.4,1.4-6.7,3.4-9.6,5.8c2.1,2.8,6.2,1.8,8,5.3
								c-3.8,1.9-7.2,3.9-10.9,5.9c-3.5,2-6.6,4.6-9.6,7.7c-0.4,0.4-1.4,0.9-2,1c-3.3,0.9-4.7,2.8-5.6,5.8
								c-0.9,3.5-2.1,7.2-2.9,10.9c-0.9,3.6-1.6,7.3-2.1,11c-0.5,3.7-0.5,7.5-0.4,11.2c0.1,3.8,0.8,7.3,1.7,10.9
								c1.3,2.8-2.8,3.9-3.9,1.6c-0.8-3.2-1.2-6.4-1.4-9.6c-0.1-3.2-0.4-6.4-0.3-9.6c0.2-3.2,0.2-6.4,0.6-9.6
								c0.4-3.2,1.6-6.2,2.2-9.4s1.1-6.3,1.9-9.4c0.8-3.1,0.9-6.4,1.8-9.5s2.3-6,3.4-9c1.4-2.9,3.6-5.2,6.2-6.9
								c2.6-1.8,5.3-3.3,6.9-6.1c0.2-0.3,0.9-0.2,1.2-0.3c4.1-2.4,8.4-4.6,12.1-7.8c0.5-0.2,2.4,1,2.8,0.7c1.7-2.1,4.3,0.5,6.3-0.1
								c2.1-0.6,4.2-0.8,6.5-0.7c4.2,0,8.4,0.1,12.6,0.4c4.1,0.4,8.4,0.9,12.3,2.6c3.3,1.4,6.8,3.1,9.6,5.4c2.8,2.3,4.6,5.4,5.1,9.3
								C423.5,340.1,423.3,340.7,423.1,341z"/>
						</g>
						<g>
							<path class="st3" d="M316.4,349c-3.8-2.7-7-6.6-11-8.8c-3.8-1.9-8.3-1.9-12-0.7c-3.8,1.2-7.4,3.9-9.4,7.6c-0.5,2,1,3.7,3.1,3
								c3.1-1.2,6.5-2.5,9.7-3c3.4-0.6,6.3-0.1,9.4,2.4c3.3,2.9,8.8,4.7,10,9.1c-2.8,0.8-5.9,1-8.7,1.4c-2.8,0.3-5.7,0.4-8.5,0.8
								c-4.6,0.4-8.6-0.4-12.1-4.1c-2.1-2.2-2.8-5-5.1-7.1c-0.5-0.5,0.5-2.7,1.2-3.8c2-3.1,4.2-5.7,7.2-7.1
								c3.1-1.4,6.7-1.8,10.2-1.6c3.4,0.3,6.9,1.2,9.9,3c2.9,1.8,5.4,4.4,7.2,7.5C317.2,348.2,316.6,348.8,316.4,349z M294.7,358.9
								c0.9-3.4,2.2-6.4,3-9.7c-3.9,0.2-7.6,2.2-11.2,4C289,356.3,291.1,358.4,294.7,358.9z M306,352.2c-0.2,2.8-0.6,4.5-0.7,6.2
								c2.5,0,5-0.2,7.2-0.2c0.1-0.3,0.5-1,0.6-1.3C311.2,355.4,308.9,354.5,306,352.2z"/>
						</g>
						<g>
							<path class="st3" d="M406.8,356.3c-2.8,1.3-5.4,2.7-8.4,3.7c-3,1-6.1,2.1-9.2,2.4c-3.2,0.4-6.4,0.1-9.4-0.8
								c-2.8-0.8-5.3-2.6-7.8-5c-2.7-3-6.6,1.2-9.7-1.7c3.1-1.3,5.6-3.2,8.5-4.2c3.2-1.2,6.5-1.9,9.5-2.5c3.3-0.7,6.6-0.6,9.7-0.3
								c3,0.3,5.9,1.6,9,3.2C401.5,352.4,404,353.8,406.8,356.3z M383.2,350.6c-3.9-0.1-7.2,1.3-9.4,3.7c2.3,3.3,4.6,5.8,9,5.5
								C382.9,356.5,383.2,353.7,383.2,350.6z M399.7,355.9c-1.4-2.6-3.8-3.7-6.7-4.3c0,2.5,0.1,4.5,0.1,7
								C395.8,358.4,398,357.6,399.7,355.9z"/>
						</g>
						<g>
							<path class="st3" d="M349.1,472.9c-2.4,1.1-3.6,0.9-5.9,1.6c-0.4,4.3,1.2,12.2-5.5,10.1c-2.5-1.3-9,0.3-7.6-4
								c0.9-2.9,0-5.1-2.5-7c-2.5-3.7,1.3-5.3,5.9-5.7c4.1-0.4,8.4,0.4,10,1.7C345.1,470.4,347.1,471.4,349.1,472.9z"/>
						</g>
						<g>
							<path class="st3" d="M414.1,353.1c-2.2-2.2-4.5-5-7.2-6.8c-2.7-1.8-5.8-3-8.7-4.2c-3-1.2-6.2-1.9-9.4-2.2
								c-3.2-0.3-6.5-0.3-9.6,0.7c-2.9,0.9-5.9,2-8.5,4.1c-0.9-1.8,0.5-1.6,1.5-2.2c3.3-2.2,6.7-4.4,10.4-4.9
								c3.8-0.6,7.8-0.1,11.6,0.8c3.7,0.9,7.3,2.6,10.6,4.6c3.4,2,6,4.7,8.4,7.8C413.8,351.5,414.5,351.7,414.1,353.1z"/>
						</g>
					</g>
				</g>
			</g>
			<g id="cara_00000063621757682501715900000008622964371796477076_">
				<path class="st3" d="M539.8,405.5c-1.9-9.3-4.7-18.4-7.3-27.5l0.1,0.1c-10.3-25.9-19-57.9-22.2-85.5
					c-5.3-36.1-34.7-64.8-67.7-78.2c-6.5-2.8-13.3-4-20.3-4c-29.4-3.7-59,1.3-86.9,9.7c-27.5,8.4-49.9,31.4-64.5,56.3
					c-3.7,6.7-8.4,13-9.6,20.9c-1.7,4.6-3.7,9-5.1,13.7c-2.8,10.9-8.2,20.9-12.3,31.2c-2,6.8-3.9,13.7-5.8,20.5
					c-5.3,20.9-14.9,45.9-4.9,66.8c4.2,7.2,13.2,23.7,23.4,21c-0.6-1.2-1.2-2.2-1.9-3.5c1.1-0.6,2.1-1.1,3.1-1.7
					c4.1,5.3,9.3,8.6,14.5,12c5.3,4.3,12.1,1.2,17.6-0.8c1.3-0.3,2.3-0.8,3.2-1.4c2.2,9.3,4.5,14.4,13.8,30.6l0.1,0.1l0.1,0.1
					c2.2,3.4,3.2,7.4,4.2,11.6c0.6,2.6,1.3,5.3,2.2,7.9c3.7,12.8,12,12.8,19.3,12.8c5,0,9.7,0.1,14,3.3l0.1,0.1l0.2,0.1
					c2.4,1.4,5.2,1.8,7.2,2c0.5,0,1,0.1,1.6,0.1c5.3,0,10.6-2,15.9-6c1.6-1.2,7.6-5.2,14.5-9.7c10.3-6.8,22.2-14.6,26.6-18l0.1-0.1
					l0.1-0.1c9-8.1,16.2-17.8,22.2-27.9c3,4.5,6.1,9.1,10.2,12.7c4,3.8,8.4,5.6,13,5.9c4.7-0.2,6.7-0.3,8.2-0.8
					c9.2-2.2,18.2-8.7,24.4-15c7.4-7.2,10.5-17.2,14.7-26.5c1.6,2.1,2.9,4.2,5.4,4.8c9.6,1,18.2-0.9,24.4-9
					C542.3,425.7,542.9,415.7,539.8,405.5z"/>
				<path class="st5" d="M272,331.2c0.6-2.3,1.5-4.5,3.6-5.9c5.4-3.7,10.9-7.4,16.2-11.4c4.7-3.5,10.3-5.4,15.6-7.7
					c6-2.1,12.2-5.3,18.5-5.9c8.7,0.3,16.4-4.3,24.2-7.2c2.3,1.7,0.1,3.3,0.5,5c-3,0.1-4.2,2.1-5.2,4.7c5.7,0,10.9-3.4,16.2-5.1
					c1.7-3.9,7-4,8.6-8.3c0.9-2.2,4.2-2,6,0c5.2,7.8,18.2,17.9,25.4,7.1c2.2,1.8,3.2,4,3,6.9c-0.1,1.2,0.3,2.8,1.1,3.5
					c6.4,5.9,11.6,11.1,19.1,15.8c-0.9,2.9-1.9,5.9-3,9.7c13.4-7.8,2.8-5.3,9.9-13.3c5.4-0.5,7.8,22.2,8.4,26.9
					c-0.4,8.2-4.7,16-3.3,24.5c2.2,17.3,5.3,20.3-12.1,29c0.3,2.8,0.9,5.8,3.3,8.3c5.7,8.3,12.6,15.2,21.3,20.3
					c-10.2,21.5-20.2,43.6-38.3,59.8c-7.5,5.7-37,24.6-41.1,27.7c-4.6,3.4-9.7,5.9-15.7,5.4c-2.1-0.2-4.2-0.6-6-1.6
					c-12.3-9-27.1,3.8-32.4-14.8c-2.5-6.7-2.8-14.1-6.7-20.2c-13.3-23.2-11.9-23-17.2-46.5c-3.7-21.4-19.1-39.8-15.9-62.1
					c1.1-9.7,2.8-19.5,0.5-29C276.9,341,269.9,338.9,272,331.2z"/>
				<g>
					<g>
						<g>
							<path class="st3" d="M347,416.1c1.6-0.3,3.5-0.4,5.1-0.7c2.8-5.5,1.5-7.5-4.2-11.6c2.2-2.9,4.8-0.9,6.6,2.1
								c1.6,2.8,2.7,6.1,1.9,7.8c-0.8,3.9-2.6,6.9-5.3,9s-6.3,3.2-9.8,4.1c0.8,3.6,3.9,5.9,7.2,8.1c3.3,2.1,6.5,4.7,9.2,6.5
								c3.6,2,7.9,2.7,11.7,4.2c2.2,0.9,2.8,2.8,2,4.8c-4.4,1.6-7.8-0.3-11.3-2.9c-2.7-2.1-6.2-2.8-9.2-4.6c-3-1.6-5.4-4-7.8-6.1
								c-2.5-2.2-4.9-4.9-7.6-6.9c-1.8,3.2,0.4,10.1,0.8,13.9c0.4,2,2.2,3.2,4.2,3.5c3,0.5,5.9,1.1,8.9,1.8c2.9,0.6,5.9,1.2,9,1.8
								c2.2,0.4,3.4,1.6,3.5,3.7c0.2,2.8-0.6,2.9-3.4,3.8c-3.5,1.2-7,2.9-10.5,3.9c-3.6,0.9-7.2,2.1-11.1,2.1
								c-3.8-0.1-6.7,0.3-9.6,0.5c-2.8,0.3-5.9,0.5-9.2-2.2c-4.8-3.8-5.6-0.1-8.4-8.6c3.3-2.1,5.5-3.4,7.4-4.5
								c3.2-1.7,4.7-2.8,5.8-6.3c0.6-2,0.9-4.7,1.3-8.8c-2.3,2-4.7,3.7-6.7,5.9c-2.1,2.2-3.5,4.9-5.6,7c-2.2,2.1-4.7,3.8-7.3,5.3
								c0.6-5.3,2.2-7.7,5-7.7c2.5-2.9,5.1-5.5,7.6-8.4c2.4-2.8,5.3-5.8,7.9-8.7c-3.7-0.7-6.7-2-8.8-3.4c-2.7-1.9-4.2-4.1-4.7-7.4
								c-0.3-2.6,0-5.6,0.7-9.1c0.3-2.9,0.7-5.9,1-8.8c0.3-2.9,0.6-5.9,0.9-8.8c0.3-2.9,0.9-5.9,1.1-8.8c0.6-3.8,0.7-7.5,1.6-11.2
								c0.9-3.7,2.5-7.2,3.3-10.9c0.8-3.7,0.9-7.5,1.4-11.3c0.4-2.4-0.8-4.1-2.2-6c-2.1-2.5-4.1-5-6.7-6.4c-2.8-1.4-5.9-2.2-9-2.7
								s-6.1-0.3-9.2,0c-4-3.2-7.2,1.2-10.5,2c-2.1,0.5-4.1,1.5-6.4,2.7c-2.1-1.2-4.7-5.3-0.9-5.7c2.1,0,3.2-1.6,4.7-2.4
								c2.6-1.6,5.6-2.4,8.5-3.1c2.9-0.7,5.9-1.2,9-1c3,0.2,5.9,1,8.9,2c2.8,0.9,5.7,2.2,8.1,4.1c-0.5,0.9-1.1,2-1.6,2.8
								c3.9,2.2,6.8,4.2,8.4,7c1.9,3.2,2,7,1.7,10.7c-0.3,3.4-1.3,7-2.3,10.6c-1,3.4-2.2,7-3.1,10.5c-1,3.7-2.1,7.3-2.2,10.8
								c-0.3,3.3,0.1,6.6-0.3,9.9c-0.4,3.3-1.1,6.5-1.6,9.7c-0.3,3.3-0.3,6.6-0.5,9.9c-0.3,4.6,1.4,6.6,4.4,7.8
								c2.9,1.3,6.5,2.2,9.8,2.6c6.2,1.2,6.2-3.4,8.4-7.9C339,412,346,411.8,347,416.1z M328.6,427.8c-0.5,2.8-1.3,5.3-1.8,7.7
								c-0.5,2.5,0.2,4.8,1,7.6c1,3.9,2.3,5.1,6.6,3.9c-0.6-3.1-1.2-6.5-1.5-9.6c-0.3-3.1-0.5-6.1-0.4-9.3
								C330.8,428,329.5,427.8,328.6,427.8z"/>
						</g>
						<g>
							<path class="st3" d="M423.6,340.2c-2.8-2.2-6-4.1-9.5-5.7c-3.3-1.6-7.1-2-10.6-2.9c-3.5-0.9-7.1-2.4-10.7-2.7
								c-3.7-0.3-7.4,0.2-11,0.7c-3.7,0.5-7.2,1.7-10.5,3.1c-3.4,1.4-6.6,3-9.6,5.4c2.1,2.8,6.6,2,8.4,5.4
								c-3.8,1.9-8.2,2.9-11.8,4.9c-3.5,2-6.3,5.2-9.2,8.3c-0.4,0.4-1.3,0.8-1.9,0.9c-3.3,0.9-5.1,3-5.9,5.9
								c-0.9,3.5-1,7.4-1.9,11.1c-0.9,3.6-2,7.2-2.5,10.9c-0.5,3.7-1.3,7.5-1.3,11.2c0.1,3.8,0.4,7.6,1.4,11.3
								c1.3,2.8-1.8,3.5-3,1.2c-0.8-3.2-1.6-6.4-1.7-9.6c-0.1-3.2-0.2-6.4,0-9.6c0.2-3.2,0-6.5,0.4-9.7c0.4-3.2,1.8-6.2,2.4-9.3
								c0.6-3.2,0.9-6.4,1.6-9.5c0.8-3.1,1.3-6.3,2.2-9.4c0.9-3.1,2.5-5.9,3.4-9c1.4-2.9,3.4-5.3,6-7.1c2.6-1.8,5.8-2.9,7.3-5.8
								c0.2-0.3,0.3-0.7,0.7-0.9c4.1-2.4,8.8-3.9,12.5-7.1c0.5-0.2,2.2,0.8,2.8,0.4c1.7-2.1,4.1,0.3,6.1-0.2
								c2.1-0.6,4.2-1.1,6.5-1.1c4.2,0,8.4,0.2,12.7,0.5c4.1,0.4,8.4,1.1,12.3,2.8c3.3,1.4,6.7,3.3,9.5,5.5c2.8,2.3,4.6,5.3,5.1,9.3
								C423.4,340.1,423.8,340,423.6,340.2z"/>
						</g>
						<g>
							<path class="st3" d="M316.8,348.3c-3.8-2.7-7.5-5.7-11.5-7.8c-3.8-1.9-7.9-1.6-11.7-0.3c-3.8,1.2-7,3.6-9,7.3
								c-0.5,2,0.5,3.7,2.6,3c3.1-1.2,6.3-3.2,9.7-3.7c3.4-0.6,6.9-0.3,10,2.2c3.3,2.9,8.2,5.3,9.5,9.8c-2.8,0.8-5.8,1.5-8.6,1.8
								s-5.7,0.4-8.5,0.8c-4.6,0.4-9.3-0.2-12.8-3.8c-2.1-2.2-2.2-5.5-4.6-7.6c-0.5-0.5-0.3-3.4,0.4-4.4c2-3.1,5-5.3,8-6.7
								c3.1-1.4,6.8-2,10.3-1.7c3.4,0.3,7.1,1.2,10,3c2.9,1.8,5.6,4.5,7.3,7.7C317.6,348,317,348.1,316.8,348.3z M295.2,359.6
								c0.9-3.4,1.6-6.9,2.4-10.2c-3.9,0.2-6.9,2.2-10.5,3.9C289.5,356.4,291.5,359.1,295.2,359.6z M305.9,351.4
								c-0.2,2.8-0.3,5.1-0.4,6.8c2.5,0,4.8-0.5,7.1-0.5c0.1-0.3,0.1,0,0.2-0.3C310.7,355.8,308.7,353.7,305.9,351.4z"/>
						</g>
						<g>
							<path class="st3" d="M407.3,356.3c-2.8,1.3-6,2.4-9,3.4c-3,1-6,2.2-9.1,2.6c-3.2,0.4-6.3-0.1-9.3-0.9
								c-2.8-0.8-5.6-2.2-8.1-4.6c-2.7-3-7.2,1-10.4-2c3.1-1.3,6.8-2.2,9.7-3.3c3.2-1.2,6.2-2.2,9.2-2.8c3.3-0.7,6.4-1.2,9.6-0.9
								c3,0.3,6,1.3,9.2,2.9C401.6,352.1,404.5,353.8,407.3,356.3z M382.9,351c-3.9-0.1-7.2,0.9-9.3,3.4c2.3,3.3,5,5.9,9.4,5.6
								C383,356.6,382.9,354.1,382.9,351z M399.2,355.9c-1.4-2.6-3.4-3.9-6.3-4.5c0,2.5,0.2,4.8,0.2,7.2
								C395.7,358.5,397.5,357.6,399.2,355.9z"/>
						</g>
						<g>
							<path class="st3" d="M348.8,472.8c-2.4,1.1-2.3,1.6-4.7,2.1c-0.4,4.3,0.3,11.8-6.5,9.7c-2.5-1.3-9.4,0-8-4.2
								c0.9-2.9,0.4-4.8-2.1-6.7c-2.5-3.7,1.4-5.3,5.9-5.8c4.1-0.4,8.8-0.1,10.3,1.2C345.4,469.9,346.8,471.3,348.8,472.8z"/>
						</g>
						<g>
							<path class="st3" d="M414.1,353.1c-2.2-2.2-4.4-5.2-7.1-7c-2.7-1.8-5.9-2.9-8.9-4.1c-3-1.2-6.3-1.5-9.4-1.7
								c-3.2-0.3-6.4-0.5-9.5,0.4c-2.9,0.9-5.9,2.2-8.5,4.5c-0.9-1.8,0.3-2.4,1.2-3c3.3-2.2,7-3.1,10.8-3.7
								c3.8-0.6,7.8-1.3,11.5-0.4c3.7,0.9,7.3,2.8,10.6,4.7c3.4,2,6.5,4.5,8.9,7.4C414.3,351.2,414.5,351.7,414.1,353.1z"/>
						</g>
					</g>
				</g>
			</g>
		</g>
	</g>
</g>
<g>
	<g>
		<path class="st5" d="M268.3,557.2c5.5-0.9,11-1.7,16.5-2.7c7.3-3.4-8.9-3.2-12-3.6c-18.2-1-5.5-3.3,2.9-9.9
			c-0.2-5-12.9,1.4-17.1-0.9c2.3-4,27-13.4,15.2-14.3c-5.8,2.2-11.5,4.3-17.3,6.4c-10.7-1.6,15.4-15.7,9-17.7
			c-25,14.4-17.5,11.7-12.2-10.3c-4.7,1.4-10.1,18.4-14.6,14.1c-0.4-2.9,2.2-15.4-2.7-11.5c-2.2,2.2-4.1,13.4-7.3,9.8
			c-3.7-6.8,0.9-17.2-4.2-22.8c-4.3,3.4,0.5,25.5-5.5,22.3c-2.2-2.2-6-13.9-8-9.9c2.9,26.9-4.3,4.4-14.8,1.7c1,12.6,15.3,21-7,10.6
			c12.5,19,0.8,13-12.4,5.3c-11.7,3.5,34.4,19.7,1.4,16.8c-5.4,2.5,8,5.6,10.3,7.5c1,6.4-17.4,1.7-21.9,6
			c15.5,6.1,34.7-1.7,9.3,13.4c2.9,3.7,16.3-3.7,15.4,1.9c-22.6,16.8-18.8,14.4,4.7,7c-8.2,15.3-7.6,16.6,7,5.8
			c2.8,9.1-10.2,14.1-9.8,22.1c6.5-1.3,10.9-11,16.5-15.3c4.7-1.6,0,10.8,3,13.9c4.4-3,4.1-9.6,7.7-13.3c5.3,4.7-0.6,22.8,5.6,22.3
			c3.3-15.9-0.3-30,12.8-8.6c-1.6-36.2,5.4-0.5,16.5,1.1c1.7-12-23.2-29.6,5.9-14.7c-14-23.5,1.4-8.1,16-6.1
			c-1.6-5.2-20.9-10.8-16.8-16c3-0.7,15.8,2.1,12.4-2.4C267.9,562.3,255.3,558.2,268.3,557.2z"/>
	</g>
</g>
<path class="st5" d="M607.1,183.7c-1.3-4.5-3.9-8.4-6.3-12.3c-2.4-4-5-7.8-8.3-10.9c-3.4-3.2-6.7-6.4-10.9-8.7
	c-4-2.2-8.5-3.4-13.1-4.6c-4.4-1.1-9-2.3-13.7-2.3c-4.7,0-9.4,0.9-13.8,2c-4.6,1.1-9,2.7-13,4.9c-4.1,2.2-7.4,5.6-10.7,8.8
	c-3.4,3.2-6.1,6.8-8.4,10.8c-2.4,4-4.6,7.9-5.9,12.5c-1.2,4.4-1.9,9-1.9,13.7c0,4.7,1,9.2,2.2,13.6c1.3,4.5,2.7,8.9,5,12.8
	c2.4,4,5,7.9,8.4,11.1c3.4,3.2,7.7,5.1,11.7,7.4c4,2.2,8.2,3.8,12.8,5c4.4,1.1,8.9,1.7,13.6,1.7c4.7,0,9.2-0.4,13.6-1.6
	c4.6-1.1,8.8-2.8,12.8-4.9c4.1-2.2,8-4.7,11.3-7.9c3.4-3.2,6.4-6.8,8.7-10.8c2.4-4,3.9-8.4,5.1-12.8c1.2-4.4,2.4-8.9,2.4-13.6
	C608.8,192.8,608.3,188.1,607.1,183.7z M514.7,220.3c5.3-0.9-1.6-13.4-2.9-10.9c-2.7-7.1,3.3-6.3,6.5-0.3
	C520.4,212.9,521.1,227,514.7,220.3z M521.8,228.4c2.1,1.6,5.9,4.7,6.6,7.1C526.4,237.1,520.6,230.6,521.8,228.4z M531.5,205.8
	c-0.4,1.5-4.1,6-4.1,4.2c4.5-2.6-0.5-10.6-4.9-9.2C512.9,206.6,531.9,186.7,531.5,205.8z M539.7,220.7c-3.3-3.4-6.2-2.2-4.5,1
	c-4.1,0.3-3.5-6.1,1.3-5.3c4,0.7,9.2,7.5,2.7,7.8C535.6,223.6,540.4,221.5,539.7,220.7z M547.9,243.5c-1.2,0-0.9-2.1-2.6-3.6
	c-2.5-2.2-5.8-4.4-5-0.6c-3.9-5.9,2.8-4.1,6.6-1.1C549.2,240,550.4,242.2,547.9,243.5z M561.8,236.9c-1.7-1,1.3-0.8,2.5-1.5
	c-0.9-0.3-3.5-1.1-5.4-0.9c-4.1,0-5.6-0.1-2.1,1.8c-0.4,1-3.6,0.6-4.7-1.3c1.6-5.1,10.8-2.6,15-1.4
	C570.2,236.8,563.7,238.7,561.8,236.9z"/>
<g>
	<path class="st3" d="M624.7,393.1c1.6,1.1,2.9,2.4,3.9,4c0.9,1.6,1.8,3.4,2.1,5.2c0.3,1.8,0.2,3.8-0.3,5.6c-0.4,1.8-1.4,3.4-2.6,5
		c-1.1,1.6-2.5,2.8-4.1,3.7c-1.6,0.9-3.3,2-5.2,2.2c-1.8,0.3-3.8,0.2-5.7-0.3c-1.8-0.4-3.4-1.6-4.9-2.7c-1.6-1.1-3.2-2.2-4.1-3.8
		c-0.9-1.6-1.2-3.6-1.6-5.4c-0.3-1.8-0.3-3.7,0.2-5.5c0.4-1.8,0.9-3.7,2-5.3c1.1-1.6,2.8-2.6,4.5-3.5c1.6-0.9,3.4-1.7,5.3-2.1
		c1.8-0.3,3.7,0,5.6,0.4C621.5,391.1,623.2,391.9,624.7,393.1z"/>
</g>
<path class="st3" d="M172.6,243.4c0.1-0.2,0.2-0.4,0.2-0.6c3.9-12.8-3.4-26.4-16.2-30.3c-12.8-3.9-26.4,3.4-30.3,16.2
	c-0.1,0.2-0.1,0.4-0.2,0.6l-19.7-5.9c-0.8,2.7,6.8,7.5,18.8,12.6c0.1,10.3,6.8,19.8,17.2,23c10.3,3.1,21.2-1,27-9.5
	c13.4,2.7,23,2.9,23.9,0.2L172.6,243.4z"/>
</svg>
