<?xml version="1.0" encoding="utf-8"?>
<!-- Generator: Adobe Illustrator 27.5.0, SVG Export Plug-In . SVG Version: 6.00 Build 0)  -->
<svg version="1.1" id="Layer_1" xmlns="http://www.w3.org/2000/svg" xmlns:xlink="http://www.w3.org/1999/xlink" x="0px" y="0px"
	 viewBox="0 0 205.22 202.01" style="enable-background:new 0 0 205.22 202.01;" xml:space="preserve">
<style type="text/css">
	.st0{fill:#0000FF;}
	.st1{fill:#D8D9CF;}
</style>
<path class="st0" d="M194.66,77.56c-2.22-7.95-6.87-14.84-11.07-21.78c-4.23-6.99-8.78-13.69-14.7-19.34
	c-5.87-5.61-11.94-11.35-19.15-15.33c-7.06-3.9-15.14-5.97-23.17-8.02c-7.74-1.98-15.79-4.16-24.18-4.16s-16.61,1.52-24.35,3.49
	c-8.04,2.05-15.98,4.74-23.03,8.64C47.82,25.05,41.93,31,36.07,36.61c-5.92,5.65-10.77,12.09-15,19.08
	c-4.2,6.94-8.12,14.09-10.34,22.03c-2.16,7.71-3.33,15.83-3.33,24.2s1.85,16.3,4.01,24.01c2.22,7.95,4.71,15.73,8.91,22.67
	c4.23,6.99,8.87,13.98,14.79,19.63c5.87,5.61,13.54,9.05,20.75,13.03c7.06,3.9,14.5,6.77,22.53,8.83
	c7.74,1.98,15.63,2.98,24.01,2.98s16.33-0.74,24.07-2.72c8.04-2.05,15.6-4.84,22.66-8.74c7.21-3.98,14.12-8.36,19.99-13.97
	c5.92-5.65,11.23-11.99,15.46-18.98c4.2-6.94,6.82-14.72,9.05-22.67c2.16-7.71,4.2-15.7,4.2-24.07
	C197.82,93.55,196.82,85.27,194.66,77.56z"/>
<path class="st1" d="M53.92,124.05c7.92-4.54-0.97-18.81-8.71-16.29c-17.03,10.23,16.61-24.95,15.93,8.76
	C60.42,119.16,53.96,127.16,53.92,124.05z"/>
<path class="st1" d="M31.42,142.23c9.36-1.49-2.95-23.6-5.12-19.37c-4.65-12.43,5.72-11.09,11.44-0.57
	C41.51,129.2,42.67,154,31.42,142.23z"/>
<path class="st1" d="M43.99,156.63c3.64,2.75,10.3,8.43,11.56,12.56C52.11,171.94,41.97,160.36,43.99,156.63z"/>
<path class="st1" d="M75.62,142.91c-5.82-6.11-10.97-3.77-7.97,1.82c-7.22,0.47-6.29-10.82,2.35-9.37
	c7.05,1.18,16.25,13.3,4.74,13.79C68.47,147.97,76.93,144.29,75.62,142.91z"/>
<path class="st1" d="M90.06,183.2c-2.13,0-1.45-3.7-4.57-6.4c-4.44-3.84-10.23-7.76-8.88-1.11c-6.93-10.45,4.82-7.3,11.62-1.97
	C92.32,176.93,94.63,180.91,90.06,183.2z"/>
<path class="st1" d="M114.79,171.57c-3.09-1.78,2.34-1.34,4.36-2.59c-1.56-0.44-6.31-1.96-9.53-1.61c-7.11-0.03-9.96-0.09-3.63,3.27
	c-0.74,1.77-6.33,1.08-8.19-2.21c2.78-9.05,19.04-4.56,26.47-2.37C129.56,171.42,118.14,174.7,114.79,171.57z"/>
</svg>
