<?xml version="1.0" encoding="utf-8"?>
<!-- Generator: Adobe Illustrator 27.5.0, SVG Export Plug-In . SVG Version: 6.00 Build 0)  -->
<svg version="1.1" id="Layer_1" xmlns="http://www.w3.org/2000/svg" xmlns:xlink="http://www.w3.org/1999/xlink" x="0px" y="0px"
	 viewBox="0 0 773.1 732" style="enable-background:new 0 0 773.1 732;" xml:space="preserve">
<style type="text/css">
	.st0{fill:none;}
	.st1{fill:#D8D9CF;}
	.st2{opacity:0.98;enable-background:new    ;}
	.st3{opacity:0.98;fill:#D8D9CF;enable-background:new    ;}
	.st4{fill:#040404;}
	.st5{fill:#0000FF;}
</style>
<g>
	<path class="st0" d="M588.2,234.9c-2.2,6.5-8.1,11.2-15.2,11.7c-0.4,0.1-0.8,0.1-1.2,0.1h0c-0.4,0-0.8,0-1.2-0.1
		c-8.9-0.7-15.9-8.1-15.9-17.2v0c0-0.8,0.1-1.6,0.2-2.3c-46.9-9.7-101-15.4-158.8-16c-0.8,6.3-6.2,11.3-12.8,11.3
		c-6.5,0-11.9-4.9-12.8-11.2c-52.4,0.9-102.6,5.9-147.4,14.8c0,0.1,0,0.2,0,0.3c0,3.6-1.1,6.9-3,9.7c-3.1,4.6-8.3,7.7-14.3,7.7
		c-7,0-12.9-4.2-15.6-10.2c-14.3,3.7-27.8,7.7-40.5,12.2c-44.9,15.9-75.4,35.4-89,56.6c6.7,1.5,12.4,5.6,15.8,11.2
		c2.3,3.6,3.6,7.9,3.6,12.5v0c0,12.3-9.5,22.4-21.8,23.9c11.6,21.5,40,41,80.3,56.6c2-17.1,16.5-30.4,34.2-30.4c0.2,0,0.5,0,0.7,0
		v-0.2c19,0,34.5,15.4,34.5,34.5c0,5.7-1.4,11.1-3.9,15.8c40,9.2,85.9,15.4,135.2,17.8c2-25.3,23.1-45.3,49-45.3
		c25.8,0,46.9,19.8,49,45.1c47.8-2.6,93.1-8.8,133.2-18.2c-1.2-3.4-1.8-7.1-1.8-11c0-19.1,15.7-34.5,35-34.5v0c0.2,0,0.4,0,0.6,0
		c15.8,0,29.1,10.4,33.4,24.7c38.6-15.5,64.5-34,75.8-53.9c-10.8-2.5-18.9-12-18.9-23.4c0-4.2,1.1-8.1,3-11.5
		c3.2-5.8,8.7-10.2,15.2-11.9C696.2,276,650.8,251.6,588.2,234.9z M385.9,333.1c-13.1,0-23.7-10.6-23.7-23.7
		c0-13.1,10.6-23.7,23.7-23.7s23.7,10.6,23.7,23.7C409.6,322.5,399,333.1,385.9,333.1z"/>
	<path class="st1" d="M58.3,349.7C58.3,349.7,58.3,349.7,58.3,349.7c-1,0-1.9,0.1-2.9,0.1c0,0,0,0,0,0.1
		c11.3,22.1,39.8,42.5,83,59.1c0-0.9,0.1-1.8,0.2-2.7C98.4,390.7,69.9,371.3,58.3,349.7z"/>
	<path class="st1" d="M712.9,304c0.9-0.2,1.8-0.4,2.7-0.5c-13.2-22.8-44.7-43.7-92.1-60.4c-11-3.9-22.6-7.4-34.7-10.7
		c-0.2,0.9-0.4,1.7-0.6,2.5C650.8,251.6,696.2,276,712.9,304z"/>
	<path class="st1" d="M370.5,211.1c-0.1-0.6-0.1-1.2-0.1-1.8v0c0-0.3,0-0.6,0-0.9c-52.4,0.9-102.7,5.9-147.5,14.8
		c0.1,0.9,0.2,1.7,0.2,2.6C267.9,217,318.1,211.9,370.5,211.1z"/>
	<path class="st1" d="M437.4,443.7c0.1,0.9,0.1,1.7,0.1,2.6c48.1-2.6,93.6-8.8,134-18.3c-0.3-0.8-0.7-1.6-0.9-2.5
		C530.5,434.9,485.3,441.1,437.4,443.7z"/>
	<path class="st1" d="M396.2,209.3c0,0.6,0,1.1-0.1,1.7c57.8,0.6,111.9,6.4,158.8,16c0.1-0.9,0.3-1.7,0.5-2.6
		c-48-9.9-102.4-15.5-159.2-16.1C396.2,208.7,396.2,209,396.2,209.3L396.2,209.3z"/>
	<path class="st1" d="M204.2,426c-0.4,0.8-0.9,1.6-1.4,2.4c41.1,9.5,87.5,15.7,136.5,18.1c0-0.9,0.1-1.8,0.1-2.6
		C290.1,441.4,244.2,435.2,204.2,426z"/>
	<path class="st1" d="M637.8,404.7c0.3,0.8,0.5,1.7,0.7,2.6c39.8-16,66.4-35.2,77.8-56c-0.9-0.1-1.8-0.3-2.7-0.5
		C702.3,370.7,676.4,389.2,637.8,404.7z"/>
	<path class="st1" d="M60.5,302.4C60.5,302.4,60.5,302.4,60.5,302.4c0.1-0.1,0.1-0.2,0.2-0.2c13.7-21.2,44.1-40.7,89-56.6
		c12.7-4.5,26.3-8.6,40.5-12.2c-0.4-0.8-0.7-1.6-0.9-2.5c-14.2,3.7-27.8,7.7-40.5,12.2c-46,16.3-77.2,36.5-90.9,58.6
		c0,0.1-0.1,0.2-0.1,0.2C58.7,302,59.6,302.2,60.5,302.4z"/>
	<g class="st2">
		<path class="st1" d="M604.8,381c14.7,0.2,27.9,10,32,24c0.2,0.8,0.5,1.7,0.6,2.5c0.5,2.3,0.8,4.7,0.8,7.1c0,9-3.5,17.4-9.9,23.7
			c-6.3,6.3-14.6,9.7-23.5,9.8V381 M604.4,380C604.4,380,604.4,380,604.4,380c-0.2,0-0.4,0-0.6,0v69.1c0.2,0,0.4,0,0.6,0
			c0,0,0,0,0,0c19.2,0,34.8-15.5,34.8-34.6v0c0-2.5-0.3-4.9-0.8-7.2c-0.2-0.9-0.4-1.7-0.7-2.6C633.5,390.4,620.2,380,604.4,380
			L604.4,380z"/>
	</g>
	<path class="st3" d="M370.3,209.3c0,0.6,0.1,1.2,0.1,1.8c0.9,6.3,6.3,11.2,12.8,11.2c6.6,0,12-4.9,12.8-11.3
		c0.1-0.6,0.1-1.1,0.1-1.7v0c0-0.3,0-0.6,0-0.9c-0.5-6.7-6.1-12-12.9-12c-6.9,0-12.5,5.3-12.9,12.1
		C370.4,208.7,370.3,209,370.3,209.3L370.3,209.3z"/>
	<g class="st2">
		<path class="st1" d="M172.6,376.9v67c-18.3-0.1-33.2-15.1-33.2-33.5c0-0.4,0-0.9,0-1.3c0-0.9,0.1-1.7,0.2-2.6
			C141.6,389.7,155.7,377.1,172.6,376.9 M172.8,375.9C172.8,375.9,172.8,375.9,172.8,375.9c-17.7,0-32.2,13.3-34.2,30.4
			c-0.1,0.9-0.2,1.8-0.2,2.7c0,0.5,0,0.9,0,1.4v0c0,19,15.4,34.5,34.5,34.5c0,0,0,0,0,0c0.3,0,0.7,0,0.7-0.2c0-0.6,0-68.7,0-68.7
			C173.3,376,173.1,375.9,172.8,375.9L172.8,375.9z"/>
	</g>
	<g class="st2">
		<path class="st1" d="M720.2,304.3c5.6,0.3,10.8,2.7,14.9,6.7c4.3,4.4,6.7,10.1,6.7,16.3c0,12.1-9.6,22.2-21.6,23V304.3
			 M718.8,303.3c-1.1,0-2.2,0.1-3.2,0.2c-0.9,0.1-1.8,0.3-2.7,0.5c-6.6,1.7-12.1,6-15.2,11.9c4.2-7.5,12.3-12.6,21.6-12.6v48
			c13.1-0.2,23.6-10.9,23.6-24v0C742.8,314,732.1,303.3,718.8,303.3C718.8,303.3,718.8,303.3,718.8,303.3L718.8,303.3z"/>
	</g>
	<g class="st2">
		<path class="st1" d="M388.5,399.6c12.2,0,23.8,4.5,32.7,12.8c8.9,8.2,14.3,19.4,15.3,31.4c0.1,0.8,0.1,1.7,0.1,2.6l0,0.4
			c0,0.3,0,0.7,0,1.1c0,26.6-21.6,48.2-48.2,48.2c-26.6,0-48.2-21.6-48.2-48.2c0-0.3,0-0.5,0-0.8l0-0.4c0-0.9,0.1-1.7,0.1-2.6
			c0.9-12.1,6.3-23.2,15.2-31.5C364.6,404.2,376.2,399.6,388.5,399.6L388.5,399.6 M388.5,398.6C388.4,398.6,388.4,398.6,388.5,398.6
			c-25.9,0-47,20-49,45.3c-0.1,0.9-0.1,1.7-0.1,2.6c0,0.4,0,0.8,0,1.3v0c0,27.2,22,49.2,49.2,49.2c0,0,0,0,0,0
			c27.2,0,49.2-22,49.2-49.2v0c0-0.5,0-1,0-1.5c0-0.9-0.1-1.8-0.1-2.6C435.4,418.4,414.2,398.6,388.5,398.6L388.5,398.6z"/>
	</g>
	<g class="st2">
		<path class="st1" d="M54.3,302.8v46c-1.3,0-2.5-0.2-3.8-0.4c-11.1-2.1-19.2-11.6-19.2-22.6c0-6.1,2.5-11.9,6.9-16.3
			C42.5,305.4,48.2,303,54.3,302.8 M55,301.8c-13.7,0-24.8,10.8-24.7,24v0c0,11.7,8.6,21.4,20,23.6c1.5,0.3,3.1,0.4,4.7,0.4
			c0,0,0,0,0,0c0.1,0,0.2,0,0.4,0c1,0,1.9-0.1,2.9-0.2c7.7-1,14.3-5.4,18.1-11.6c2.2-3.6,3.5-7.8,3.5-12.2v0
			c0-7.3-3.3-13.8-8.6-18.2c5.2,4.4,8.5,10.9,8.5,18.2c0,13.2-10.9,24-24.4,24v-47.9c2.5,0,4.9,0.4,7.2,1.1
			c-0.6-0.2-1.3-0.4-1.9-0.5c-0.9-0.2-1.8-0.4-2.7-0.5c-0.9-0.1-1.7-0.1-2.6-0.1C55.1,301.8,55.1,301.8,55,301.8L55,301.8z"/>
	</g>
	<path class="st4" d="M70.8,307.2C70.8,307.3,70.8,307.3,70.8,307.2C70.8,307.3,70.8,307.3,70.8,307.2z"/>
	<g class="st2">
		<path class="st1" d="M199.6,211c-2.8,3.2-4.6,8.8-4.6,15.2c0,6.2,1.7,11.6,4.4,14.9c-3.6-1.6-6.6-4.5-8.2-8.2
			c-0.3-0.7-0.6-1.5-0.8-2.3c-0.4-1.5-0.6-3-0.6-4.4C189.7,219.4,193.8,213.5,199.6,211 M205.9,208.8
			C205.9,208.8,205.9,208.8,205.9,208.8c-9.5,0-17.2,7.8-17.2,17.4v0c0,1.6,0.2,3.2,0.7,4.7c0.2,0.9,0.5,1.7,0.9,2.5
			c2.7,6,8.7,10.2,15.6,10.2c0,0,0,0,0,0c5.9,0,11.2-3,14.3-7.7c-3,4.4-7.9,7.3-13.5,7.5c-0.3,0.1-0.7,0.1-1.1,0.1h0c0,0,0,0,0,0
			c-5.3,0-9.6-7.7-9.6-17.2c0-9.5,4.3-17.2,9.6-17.3h0c0,0,0,0,0,0c0.1,0,0.2,0,0.3,0v-0.1c6,0,11.2,3,14.3,7.7
			C217.1,211.9,211.9,208.8,205.9,208.8L205.9,208.8z"/>
	</g>
	<path class="st3" d="M205.9,208.9v0.1c-0.1,0-0.2,0-0.3,0h0c-5.3,0-9.6,7.7-9.6,17.3c0,9.5,4.3,17.2,9.6,17.2h0
		c0.4,0,0.7,0,1.1-0.1c5.6-0.3,10.5-3.2,13.5-7.5c1.9-2.8,3-6.1,3-9.7c0-0.1,0-0.2,0-0.3c0-0.9-0.1-1.8-0.2-2.6
		c-0.4-2.5-1.3-4.7-2.7-6.7C217.1,211.9,211.8,208.9,205.9,208.9z"/>
	<g class="st2">
		<path class="st1" d="M579.6,215.1c5,2.8,8.4,8.1,8.4,14.3c0,0.9-0.1,1.8-0.3,2.8c-0.1,0.8-0.3,1.6-0.6,2.4c-1.3,3.9-4,7-7.3,8.9
			c2.8-3.4,4.6-8.4,4.6-14.1C584.4,223.6,582.6,218.4,579.6,215.1 M571.9,212.1c-7.8,0-14.4,5.2-16.5,12.3c-0.2,0.8-0.4,1.7-0.5,2.6
			c-0.1,0.8-0.2,1.5-0.2,2.3v0c0,9.1,7,16.5,15.9,17.2c-0.1,0-0.2,0-0.2-0.1c-8.8-0.8-15.6-8.1-15.6-17.1c0-9,6.9-16.4,15.8-17.1
			C570.9,212.2,571.4,212.2,571.9,212.1C571.8,212.2,571.8,212.2,571.9,212.1L571.9,212.1c6.4,0.1,11.6,7.8,11.6,17.3
			c0,8.9-4.6,16.3-10.5,17.2c7.1-0.5,13-5.2,15.2-11.7c0.3-0.8,0.5-1.7,0.6-2.5c0.2-1,0.3-2,0.3-3v0
			C589.1,219.8,581.4,212.1,571.9,212.1C571.9,212.1,571.9,212.1,571.9,212.1L571.9,212.1z"/>
	</g>
	<path class="st3" d="M571.8,246.7c0.4,0,0.8,0,1.2-0.1c5.9-0.9,10.5-8.2,10.5-17.2c0-9.5-5.2-17.2-11.6-17.3h0
		c-0.4,0-0.9,0-1.3,0.1c-8.8,0.7-15.8,8.1-15.8,17.1c0,9,6.9,16.3,15.6,17.1c0.1,0,0.2,0,0.2,0.1C571,246.6,571.4,246.7,571.8,246.7
		L571.8,246.7z"/>
	<path class="st3" d="M719.2,303.3c-9.3,0-17.4,5.1-21.6,12.6c-1.9,3.4-3,7.3-3,11.5c0,11.4,8.1,20.9,18.9,23.4
		c0.9,0.2,1.8,0.4,2.7,0.5c1,0.1,1.9,0.2,2.9,0.2V303.3z"/>
	<path class="st3" d="M70.8,307.2c-2.4-1.9-5.2-3.4-8.3-4.4c-2.3-0.7-4.7-1.1-7.2-1.1v47.9c13.5,0,24.4-10.7,24.4-24
		c0-7.3-3.3-13.8-8.5-18.2C71.1,307.5,70.9,307.4,70.8,307.2C70.8,307.3,70.8,307.3,70.8,307.2z"/>
	<path class="st3" d="M208.1,410.2c0-19-15.4-34.5-34.5-34.5v68.9h0c3.4,0,6.6-0.5,9.7-1.4c8.2-2.4,15.1-7.8,19.6-14.9
		c0.5-0.8,0.9-1.6,1.4-2.4C206.7,421.3,208.1,415.9,208.1,410.2z"/>
	<path class="st3" d="M603.8,380c-19.3,0-35,15.5-35,34.5c0,3.8,0.6,7.5,1.8,11c0.3,0.8,0.6,1.7,0.9,2.5
		c5.3,12.4,17.7,21.1,32.2,21.1h0V380z"/>
	<circle class="st3" cx="385.9" cy="309.4" r="23.7"/>
</g>
<g id="VT41ro_00000057851593308643603100000009699786020903879863_">
	<g>
		<path class="st5" d="M386.7,573.1c28.2,0.1,51.2,23.2,51.1,51.4c-0.1,28.2-23.2,51.2-51.4,51.1c-28.2-0.1-51.1-23.1-51.1-51.2
			C335.4,596,358.4,573.1,386.7,573.1z M386.9,672.4c0.6-2.3,1.2-4.6,1.9-6.8c0.7-2.3,1.6-4.5,2.5-6.7c1.5-3.5,3.6-6.6,7-8.5
			c1.3-0.7,2.7-1.1,4.1-1.6c2.3-0.9,3.2-2,3.3-4.2c0.1-2.3-0.9-3.8-3-4.8c-0.8-0.4-1.7-0.7-2.5-0.9c-3.5-0.9-6.3-2.7-8.5-5.6
			c-2-2.7-4.7-4-8.1-3.9c-2.3,0.1-4.7-0.1-6.8-1.3c-2.5-1.4-4.9-2.7-7.3-4.2c-0.8-0.5-1.5-1.3-2.1-2c-0.7-1-0.4-1.9,0.8-2.3
			c2.7-0.8,4.9-0.6,6.3,1.7c0.7,1.1,1.7,1.8,3,2.1c1.6,0.3,2.6-0.2,2.8-1.8c0.2-1.4,0.2-2.8,0.3-4.2c0.2-3.2,1.5-4.8,4.7-5.4
			c0.4-0.1,0.7-0.1,1.1-0.2c3.9-0.9,6.6-3.4,8.3-7c0.6-1.2,0.6-2.4-0.2-3.5c-1.7-2.3-5.2-2.3-7-0.2c-0.4,0.5-0.8,1-1.3,1.5
			c-1.3,1.3-2.8,1.9-4.6,1.6c-2-0.3-3-1.8-2.3-3.6c2-0.1,3.6-0.8,4.7-2.6c1.3-2,0.6-4.5-1.7-5.3c-1.4-0.5-3-0.8-4.5-1
			c-2.6-0.2-3.2,0.2-4,2.7c-0.3,0.9-0.8,1.4-1.8,1.5c-3,0.4-5.8,0.3-7.4-2.9c-0.1-0.1-0.2-0.2-0.2-0.4c-0.8-1.3-2-2-3.6-2.1
			c-0.7,0-1.3-0.1-2.3-0.2c0.2-1.8,0.3-3.6,0.5-5.3c-5.5,3.9-10.1,8.7-13.5,14.7c1.3-0.2,2.5-0.4,3.7-0.8c2.2-0.6,4.5-0.9,6.8-0.7
			c1.7,0.1,3,1.1,3,2.4c0,2.1,0.6,4.1,1.3,6c0.7,2.1,0.7,4.1,0,6.1c-0.5,1.2-0.8,2.5-1.2,3.8c-0.6,1.7-0.4,3.5,0.6,5
			c1,1.6,2,3.1,3.1,4.5c1,1.3,2.4,1.9,4.1,1.8c4.2-0.2,7.5,2.5,8.1,6.6c0.3,2.7,0.3,5.5,0.3,8.2c-0.1,3.4,0.7,6.5,2.6,9.3
			c0.7,1.1,1.5,2.2,2.2,3.4c1.5,2.5,3,5,3.5,8c0.4,2.2,0.3,4.4,0.5,6.6C384.2,672.9,384,672.5,386.9,672.4z M394.6,577.1
			c1.8,2.3,1.9,5,2.2,7.7c0.2,2.4,0.8,4.8,2.2,6.8c1.9,2.8,3.3,5.8,3.9,9.2c0.2,0.9,0.8,1.9,1.5,2.4c2.6,1.9,6.9,0.2,7.5-3
			c0.3-1.3,0.3-2.6,0.5-3.8c1.4-0.3,2.7-0.6,4-0.9c1.3-0.2,1.6,0,1.9,1.2c0.2,0.9,0.3,1.8,0.5,2.7c0.1,0.4,0.4,0.9,0.7,1.1
			c0.8,0.5,1.7,0.9,2.5,1.4c1.3,0.9,1.6,2.1,1.1,3.6c-0.5,1.4-1.5,2-2.8,2.2c-1.6,0.3-3.2,0.5-4.8,0.9c-2.7,0.8-4.9,2.3-5.5,5.3
			c-0.4,2.2,0.3,4.1,1.3,6c1.1,1.9,2.2,3.7,3.3,5.6c2.1,3.7,5.1,6.2,9.1,7.6c3.6,1.2,6.9,2.9,8.2,7
			C441.8,612.4,423.9,581.9,394.6,577.1z M376.7,577.4c-4.1,0.9-7.9,2.2-11.6,4C369.5,581.6,373.3,580.2,376.7,577.4z"/>
	</g>
</g>
<g class="st2">
	<g>
		<path class="st1" d="M164.5,107.8c1.6,0.1,3,0.6,4.1,1.5s1.9,2.4,2.5,4.2c0.6-1.7,1.1-2.9,1.6-4.2c0.5-1.3,1-2.5,1.6-4.2
			c1.4-0.4,2.7-0.8,3.9-1.1c1.2-0.3,2.3-0.7,3.3-1c1.1-0.3,2.2-0.6,3.4-0.9c1.2-0.3,2.4-0.7,3.9-1.1c0.3,0.5,0.4,0.7,0.7,1.2
			c-0.7,1.2-1.2,2.2-1.7,3.1s-1,1.8-1.5,2.7c-0.5,0.9-1.1,1.9-1.7,3.1c-1.6,0.5-3,0.9-4.3,1.2c-1.3,0.4-2.5,0.7-3.7,1.1
			c-1.3,0.4-2.6,0.8-4.3,1.3c0.6,1.8,1,3.4,1.4,4.8c0.4,1.4,0.8,2.8,1.3,4.2c0.4,1.4,0.9,3,1.4,4.8c0.5-1.3,0.9-2.3,1.2-3.3
			c0.4-1,0.8-2,1.3-3.3c1.8-0.5,3.1-0.9,4.4-1.3c1.3-0.4,2.7-0.8,4.5-1.3c0.5,0.3,0.8,0.4,1.3,0.7c-0.7,1.6-1.2,2.7-1.7,3.9
			s-1,2.3-1.6,3.9c-1.8,0.6-3.2,1-4.5,1.4s-2.7,0.9-4.5,1.4c0.5,1.6,0.9,3,1.3,4.3c0.4,1.3,0.7,2.5,1.1,3.7c0.4,1.3,0.8,2.6,1.3,4.3
			c0.4,1.6,1.1,3,2,4c0.9,1.1,2.1,1.9,3.5,2.5c-0.9,1.5-1.6,2.7-2.2,3.9c-0.7,1.2-1.3,2.3-2.2,3.9c-1.3,0.2-2.5,0.1-3.5-0.2
			c-1-0.3-1.9-0.8-2.7-1.5c-0.8-0.7-1.4-1.7-1.9-2.9c-0.6-1.8-1.1-3.6-1.6-5.2c-0.5-1.6-1-3.1-1.5-4.6s-0.9-2.9-1.4-4.3
			c-0.4-1.4-0.9-2.8-1.3-4.2c-0.4-1.4-0.9-2.8-1.4-4.3c-0.5-1.5-0.9-3-1.5-4.6c-0.5-1.6-1.1-3.3-1.6-5.2c-0.5-1.5-1.1-2.3-1.7-2.5
			c-0.7-0.2-1.4,0.2-2.2,1.3c-0.4-0.4-0.6-0.6-1-1c0.8-1.4,1.5-2.6,2.1-3.7c0.6-1.1,1.2-2.1,1.9-3.2
			C163,110.4,163.6,109.2,164.5,107.8z"/>
		<path class="st1" d="M221.8,111.9c1.3,0.4,2.5,1.1,3.4,2.1c0.9,1,1.7,2.4,2.2,4.1c0.4,1.8,0.7,3.3,1,4.7s0.6,2.7,0.9,4.1
			c0.3,1.4,0.6,2.9,1,4.7c0.6,1.3,1.3,2.2,2.1,2.7s1.7,0.4,2.7,0c0.3,0.3,0.4,0.5,0.7,0.8c-0.7,1.2-1.3,2.2-1.8,3.1
			c-0.5,0.9-1.1,1.8-1.6,2.7c-0.5,0.9-1.1,1.9-1.8,3.1c-1.9,0.1-3.5-0.3-4.8-1.1c-1.3-0.8-2.3-2-3.1-3.7c-0.6,1.2-1.3,2.3-2,3.2
			c-0.7,1-1.4,1.8-2.1,2.6c-0.7,0.7-1.6,1.4-2.6,2c-1,0.6-2.1,1-3.3,1.4c-1.2,0.4-2.5,0.5-3.9,0.3s-2.8-0.7-4.4-1.4
			c-1.6-0.7-2.8-1.7-3.7-2.8s-1.5-2.5-1.8-4.1c0.9-1.8,1.7-3.2,2.4-4.6s1.4-2.6,2.1-4c0.7-1.4,1.5-2.8,2.5-4.6
			c1.7-0.5,3.1-0.9,4.5-1.2c1.3-0.4,2.6-0.7,3.9-1c1.3-0.4,2.8-0.7,4.5-1.2c-0.3-2.2-0.8-3.9-1.6-5.3c-0.8-1.3-1.7-2.2-2.9-2.6
			c-1.2-0.4-2.6-0.4-4.3,0c-1.6,0.5-2.8,1-3.5,1.7c-0.7,0.7-0.9,1.4-0.6,2.3c0.3,0.9,1,1.8,2.2,2.9c-1,1-1.9,1.8-2.7,2.5
			c-0.8,0.8-1.5,1.4-2.3,2.2c-0.8,0.8-1.6,1.6-2.6,2.5c-1.2-1.2-2-2.4-2.4-3.6c-0.4-1.2-0.4-2.4,0-3.7c0.4-1.2,1.1-2.5,2.3-3.7
			c1.2-1.2,2.4-2.3,3.6-3.2s2.5-1.7,3.8-2.3c1.3-0.6,2.6-1,3.9-1.3s2.6-0.5,3.8-0.6s2.3-0.1,3.4,0
			C219.9,111.5,220.9,111.6,221.8,111.9z M205.8,133.5c-0.4,0.7-0.7,1-1.1,1.7c1.3,1.3,2.6,2.3,3.9,3c1.3,0.8,2.5,1.3,3.7,1.5
			s2.4,0.3,3.5,0c1.7-0.4,3.1-0.8,4.1-1.3c1-0.5,1.7-1.1,2-1.8c-0.3-1.4-0.6-2.4-0.8-3.4c-0.2-1-0.5-2.1-0.8-3.4
			c-1.9,0.5-3.6,0.9-5.1,1.3s-2.9,0.7-4.4,1.1C209.3,132.6,207.7,133,205.8,133.5z"/>
		<path class="st1" d="M255.8,103.6c1.1,0.3,2,0.7,2.7,1.3c0.7,0.6,1.3,1.3,1.6,2.1c-1,1.3-1.8,2.3-2.5,3.3c-0.8,1-1.5,2-2.5,3.3
			c-0.3-0.2-0.4-0.3-0.6-0.5c0.3-0.6,0.2-1.2-0.3-1.7c-0.5-0.5-1.5-0.9-3-1.3c-1.4-0.4-2.7-0.5-3.9-0.6c-1.2,0-2.2,0.1-3.2,0.5
			c-1.9,0.7-2.3,1.6-1.2,2.9c0.5,0.6,1.5,1.2,3,1.6c1.5,0.4,3.4,0.7,5.9,0.8c1.6,0.1,3.1,0.3,4.3,0.5c1.3,0.2,2.4,0.5,3.3,0.8
			c0.9,0.3,1.7,0.7,2.2,1.2c0.8,0.7,1.5,1.4,2.1,2.2c0.6,0.8,1,1.8,1.3,2.8c0.3,1,0.4,2,0.4,3.1s-0.3,2.2-0.7,3.3
			c-0.4,1.1-1,2.2-1.7,3.3c-0.7,1.1-1.7,2.1-2.7,3.1c-1.1,1-2.2,1.8-3.4,2.4s-2.4,1-3.6,1.1c-1.2,0.2-2.5,0.2-3.7,0.2
			s-2.5-0.2-3.8-0.4c-1.3-0.2-2.5-0.6-3.6-1.1c-1.1-0.5-2.1-1.1-3.1-1.8c-1-0.7-1.6-1.4-2.1-2.1c-0.4-0.7-0.6-1.4-0.5-2.1
			c1-1.3,1.8-2.3,2.5-3.2c0.8-1,1.5-1.9,2.5-3.2c0.4,0.1,0.6,0.2,1,0.3c-0.9,1.3-0.5,2.5,1,3.5c0.8,0.5,1.6,0.9,2.5,1.3
			c0.9,0.4,1.8,0.7,2.8,1c1,0.3,2,0.5,3,0.6c1,0.1,2,0.1,3,0.1c2-0.1,3.4-0.4,4.3-1c0.9-0.5,1.2-1.3,0.9-2.3c-0.3-1-1.2-2-2.8-2.9
			c-0.8-0.5-1.9-0.8-3.3-1.1c-1.5-0.2-3.2-0.4-5.4-0.4c-2.1,0-4-0.1-5.6-0.4s-2.9-0.7-4-1.3c-1-0.6-1.8-1.3-2.3-2.1s-0.7-1.8-0.6-3
			c0.1-1.1,0.3-2.2,0.6-3.1c0.3-0.9,0.7-1.8,1.2-2.5c0.5-0.7,1.1-1.4,1.7-2.2c0.6-0.7,1.4-1.4,2.2-2.2c0.8-0.7,1.7-1.4,2.8-2
			s2.3-1.1,3.7-1.6c1.4-0.5,2.7-0.8,3.9-0.9S254.7,103.3,255.8,103.6z"/>
		<path class="st1" d="M291,104c0.3,1.2,0.3,2.4,0,3.6c-0.4,1.2-1.1,2.5-2.1,3.8c-1,1.3-2.4,2.7-4.2,4.1c-1.1,0.9-1.9,1.7-2.8,2.4
			c-0.8,0.7-1.6,1.4-2.4,2.1s-1.7,1.5-2.7,2.4c0.4,0.7,1.1,1.3,2.2,1.9s2.4,1,4.1,1.4c1.1,0.2,2.3,0.2,3.6-0.1s2.6-0.9,4.1-1.8
			c1.5-0.9,3-2,4.6-3.5c0.5,0.3,0.8,0.5,1.3,0.8c-0.3,0.9-0.8,1.8-1.3,2.8c-0.6,1-1.3,2-2.2,3c-0.9,1-1.9,2.1-3.1,3.2
			s-2.3,2-3.5,2.7c-1.2,0.7-2.4,1.1-3.6,1.4c-1.2,0.2-2.4,0.3-3.7,0.1c-1.5-0.3-2.9-0.7-4.2-1.2s-2.4-1.2-3.4-2.1s-1.9-1.8-2.6-2.9
			c-0.7-1.1-1.3-2.3-1.8-3.5c-0.5-1.2-0.8-2.5-1-3.8c-0.2-1.3-0.2-2.7-0.1-4.2c0.1-1.4,0.4-2.9,0.8-4.2c0.4-1.4,1-2.7,1.7-4
			c0.7-1.3,1.7-2.6,2.7-3.8c1.1-1.2,2.2-2.3,3.4-3.1c1.2-0.8,2.5-1.4,3.8-1.9c1.3-0.4,2.7-0.6,4.2-0.6c1.5,0,2.7,0.2,3.8,0.6
			c1.1,0.4,2,1,2.7,1.8C290.1,101.9,290.6,102.9,291,104z M273.3,116.8c0.5,1.2,1.1,2.4,1.9,3.6c1.7-1.3,3.2-2.4,4.3-3.5
			c1.2-1.1,2-2.1,2.6-3.1c0.6-0.9,0.9-1.8,0.9-2.6c0-1.2-0.3-2.2-0.9-3c-0.6-0.9-1.6-1.5-2.9-2c-1.3-0.5-2.5-0.7-3.4-0.5
			c-1,0.1-1.8,0.6-2.4,1.4c-0.6,0.8-1.1,1.6-1.3,2.5c-0.2,0.9-0.2,1.8-0.1,2.7C272.5,114.1,272.9,115.6,273.3,116.8z"/>
		<path class="st1" d="M320,94.8c1.1,0.4,1.9,0.9,2.6,1.5c0.7,0.6,1.1,1.4,1.4,2.2c-1.1,1.2-2,2.1-2.8,3s-1.7,1.8-2.8,3
			c-0.2-0.2-0.4-0.3-0.6-0.5c0.4-0.6,0.3-1.2-0.1-1.7c-0.5-0.5-1.4-1.1-2.8-1.5c-1.4-0.5-2.7-0.8-3.8-0.9c-1.2-0.1-2.2-0.1-3.2,0.2
			c-1.9,0.5-2.4,1.4-1.5,2.8c0.5,0.7,1.4,1.3,2.8,1.8s3.4,1,5.8,1.4c1.6,0.3,3,0.6,4.3,0.9s2.3,0.7,3.2,1.1c0.9,0.4,1.6,0.9,2.1,1.4
			c0.8,0.7,1.4,1.5,1.9,2.4s0.8,1.8,1,2.9c0.2,1,0.2,2.1,0.1,3.1c-0.1,1.1-0.5,2.1-1,3.2c-0.5,1.1-1.2,2.1-2,3.1
			c-0.8,1-1.8,1.9-3,2.9c-1.2,0.9-2.3,1.6-3.5,2.1s-2.4,0.8-3.7,0.8c-1.2,0.1-2.5,0-3.7-0.1c-1.2-0.1-2.5-0.4-3.7-0.8
			c-1.2-0.4-2.4-0.8-3.5-1.4s-2-1.3-2.9-2.1s-1.5-1.6-1.9-2.3c-0.4-0.7-0.5-1.5-0.3-2.2c1.1-1.2,1.9-2.1,2.8-3
			c0.8-0.9,1.7-1.8,2.8-3c0.4,0.2,0.6,0.3,1,0.4c-1,1.2-0.7,2.4,0.7,3.5c0.7,0.6,1.5,1.1,2.3,1.5s1.7,0.9,2.7,1.2
			c1,0.4,1.9,0.6,2.9,0.8c1,0.2,2,0.3,3,0.4c2,0.1,3.5-0.1,4.4-0.6c0.9-0.5,1.3-1.2,1.1-2.2c-0.2-1-1.1-2.1-2.5-3.1
			c-0.7-0.5-1.8-1-3.2-1.4c-1.4-0.4-3.2-0.7-5.3-0.8c-2.1-0.2-3.9-0.5-5.5-0.9c-1.6-0.4-2.8-1-3.8-1.6c-1-0.7-1.7-1.4-2.1-2.3
			c-0.4-0.9-0.5-1.9-0.3-3c0.2-1.1,0.5-2.1,0.9-3c0.4-0.9,0.9-1.7,1.4-2.4c0.6-0.7,1.2-1.3,1.9-2c0.7-0.7,1.5-1.3,2.3-2
			c0.8-0.6,1.8-1.2,3-1.7s2.4-0.9,3.8-1.3c1.4-0.4,2.7-0.5,4-0.5S318.9,94.4,320,94.8z"/>
		<path class="st1" d="M377.2,94.9c0,2.6,0,5.1,0,7.3c0,2.2,0.1,4.3,0.3,6.1s0.3,3.5,0.5,4.9s0.5,2.7,0.8,3.7c0.3,1,0.6,1.9,1,2.5
			c0.4,0.6,0.8,1.1,1.3,1.3c-1.4,1.2-2.4,2-3.4,2.9c-1,0.9-2,1.8-3.4,2.9c-1.1-0.6-2-1.4-2.8-2.2s-1.3-1.8-1.7-2.8
			c-0.4-1-0.6-2.2-0.6-3.4c-1.4,1.5-2.7,2.7-3.9,3.8s-2.3,2-3.4,2.8c-1,0.7-2,1.3-2.9,1.7s-1.7,0.6-2.4,0.6c-1,0-1.9-0.2-2.8-0.6
			s-1.8-1-2.7-1.8c-0.9-0.8-1.8-1.8-2.7-3.1c-0.9-1.2-1.6-2.5-2.1-3.8c-0.5-1.3-0.9-2.6-1.1-3.9s-0.2-2.7,0-4.1
			c0.2-1.4,0.5-2.7,0.9-3.9c0.4-1.2,0.9-2.3,1.5-3.3c0.6-1,1.3-1.9,2.1-2.7c1.2-1.2,2.3-2.3,3.4-3.3c1.1-1,2.2-1.8,3.2-2.6
			c1-0.7,2.1-1.3,3-1.7c1-0.4,1.9-0.7,2.8-0.7s1.8,0,2.7,0.1s1.9,0.5,3,1c0-2.2-0.1-4.3-0.2-6.1c-0.1-1.8-0.2-3.4-0.4-4.8
			c-0.2-1.4-0.4-2.6-0.7-3.5c-0.3-1-0.6-1.7-0.9-2.2c1.6-1.1,2.9-1.9,4.1-2.7c1.2-0.8,2.5-1.6,4.1-2.7c0.4,0.1,0.8,0.3,1.2,0.8
			c0.3,0.5,0.7,1.2,0.9,2.1c0.3,0.9,0.5,2.1,0.7,3.4c0.2,1.4,0.3,2.9,0.4,4.7c0.1,1.8,0.2,3.8,0.2,6
			C377.2,89.8,377.2,92.3,377.2,94.9z M353.8,99.7c-0.5,1.9-0.8,3.6-0.8,5.2c-0.1,1.6,0.1,3.2,0.5,4.6c0.4,1.4,1,2.7,1.8,3.9
			c1.2,1.8,2.5,3.1,3.7,3.9c1.3,0.8,2.6,1.1,4,1c1.4-0.1,2.5-0.5,3.4-0.9c0.9-0.5,1.5-1.1,1.8-1.9c0.2-0.1,0.3-0.1,0.5-0.2
			c0-1.6-0.1-2.9-0.1-4.2c0-1.3-0.1-2.4-0.1-3.7s-0.1-2.6-0.1-4.2c-0.1-0.4-0.1-0.6-0.2-1c0-0.9,0-1.4-0.1-2.3
			c-1.1,0.9-1.9,1.6-2.6,2.3s-1.6,1.4-2.6,2.3c-0.6-1.2-1.3-2.2-2.2-3c-0.9-0.8-1.9-1.3-3-1.6C356.5,99.6,355.2,99.6,353.8,99.7z"/>
		<path class="st1" d="M409.3,98.1c0.2,1.2,0,2.4-0.6,3.5s-1.4,2.3-2.7,3.4c-1.2,1.1-2.8,2.2-4.8,3.3c-1.2,0.7-2.2,1.3-3.1,1.9
			c-0.9,0.6-1.8,1.1-2.7,1.6c-0.9,0.6-1.9,1.2-3.1,1.9c0.3,0.8,0.9,1.5,1.8,2.2c0.9,0.7,2.2,1.4,3.8,2c1.1,0.4,2.2,0.6,3.5,0.5
			c1.3-0.1,2.7-0.5,4.3-1.1c1.6-0.6,3.3-1.5,5.1-2.7c0.5,0.4,0.7,0.6,1.2,1c-0.4,0.8-1,1.6-1.8,2.5c-0.7,0.8-1.6,1.7-2.7,2.6
			c-1,0.9-2.2,1.8-3.5,2.7c-1.3,0.9-2.6,1.6-3.9,2.1c-1.3,0.5-2.5,0.7-3.7,0.8c-1.2,0-2.5-0.1-3.6-0.5c-1.5-0.5-2.8-1.2-3.9-1.9
			s-2.2-1.6-3-2.6c-0.9-1-1.6-2.1-2.1-3.3c-0.6-1.2-1-2.5-1.2-3.7c-0.3-1.3-0.4-2.6-0.3-3.9c0-1.3,0.2-2.7,0.6-4.1
			c0.3-1.4,0.8-2.8,1.5-4.1c0.6-1.3,1.4-2.5,2.4-3.7c0.9-1.2,2-2.3,3.3-3.3c1.3-1,2.5-1.9,3.9-2.5c1.3-0.6,2.7-1,4.1-1.2
			c1.4-0.2,2.8-0.2,4.2,0.1c1.4,0.2,2.7,0.6,3.7,1.2c1,0.6,1.8,1.3,2.4,2.2C408.8,95.8,409.1,96.9,409.3,98.1z M389.9,107.8
			c0.3,1.3,0.7,2.5,1.3,3.9c1.9-1,3.5-1.9,4.8-2.8c1.3-0.9,2.4-1.8,3.1-2.6c0.7-0.8,1.2-1.6,1.3-2.4c0.2-1.2,0.1-2.2-0.4-3.2
			s-1.3-1.8-2.6-2.5c-1.2-0.7-2.3-1.1-3.3-1.1s-1.9,0.3-2.6,1c-0.8,0.7-1.3,1.4-1.7,2.3c-0.4,0.8-0.5,1.7-0.5,2.7
			C389.4,105,389.6,106.5,389.9,107.8z"/>
		<path class="st1" d="M462.7,76.3c1.1,0.6,2.1,1.5,3,2.7s1.7,2.5,2.4,4.2c0.7,1.6,1.3,3.5,1.8,5.6c0.4,1.6,0.6,3.2,0.7,4.7
			c0.1,1.6,0,3.1-0.2,4.6s-0.6,3-1.2,4.5s-1.2,2.9-2.1,4.3c-0.8,1.4-1.6,2.8-2.4,4c-0.8,1.3-1.5,2.4-2.2,3.5c-0.7,1.1-1.4,2.1-2,3
			c-0.6,0.9-1.2,1.8-1.8,2.5c-0.8,1-1.5,2-2.3,2.9s-1.6,1.8-2.4,2.7c-0.8,0.8-1.6,1.6-2.5,2.4c-1.3,1.1-2.4,1.4-3.5,0.9
			c-1.1-0.5-2.1-1.9-3.1-4.1c-0.5-1.9-1-3.6-1.5-5.3c-0.5-1.7-0.9-3.2-1.3-4.7c-0.4-1.5-0.9-2.9-1.3-4.4s-0.8-2.8-1.3-4.2
			c-0.4-1.4-0.9-2.9-1.3-4.4c-0.5-1.5-0.9-3.1-1.4-4.7c-0.5-1.6-1-3.4-1.6-5.3c-0.7-1.9-1.4-3.1-2.2-3.6c-0.8-0.5-1.6-0.4-2.4,0.4
			c-0.1-0.4-0.2-0.6-0.3-1c1.2-1.4,2.1-2.5,3-3.6c0.9-1.1,1.8-2.1,2.7-3.1c0.9-1.1,1.9-2.2,3.1-3.6c1.7-1.3,2.8-0.7,3.3,1.5
			c0.8,3,1.6,5.8,2.3,8.4c0.7,2.7,1.4,5.1,2.1,7.5c0.7,2.3,1.3,4.5,1.9,6.5c0.6,2,1.2,3.8,1.7,5.5c0.5,1.7,1,3.1,1.5,4.5
			c0.5,1.3,0.9,2.5,1.3,3.5s0.8,1.8,1.2,2.5c0.4,0.7,0.7,1.1,1,1.5c0.3,0.3,0.6,0.5,0.8,0.5c0.9-1,1.7-2,2.3-3.3s1.2-2.6,1.7-4
			c0.5-1.5,0.8-3.1,1-4.8c0.2-1.3,0.3-2.6,0.3-3.9c0-1.3-0.1-2.6-0.3-4c-0.2-1.3-0.4-2.7-0.8-4c-0.4-1.3-0.8-2.7-1.4-4
			c-0.7-1.8-1.5-3.1-2.4-3.9c-0.9-0.8-1.9-1.2-2.9-1.1c-1,0.1-2.1,0.7-3.3,1.7c-0.3-0.6-0.4-0.8-0.7-1.4c1.3-2.2,2.6-4,3.8-5.5
			c1.2-1.5,2.3-2.7,3.4-3.5s2.1-1.3,3-1.5C461,75.7,461.9,75.8,462.7,76.3z"/>
		<path class="st1" d="M499.2,106.6c0,1.2-0.3,2.4-1,3.4s-1.7,2.1-3.1,3.1c-1.4,1-3.1,1.9-5.1,2.7c-1.3,0.6-2.3,1-3.3,1.5
			c-1,0.4-1.9,0.9-2.9,1.3c-1,0.4-2,0.9-3.3,1.5c0.2,0.8,0.7,1.6,1.5,2.4c0.8,0.8,2,1.6,3.5,2.5c1,0.6,2.2,0.9,3.5,0.9
			c1.3,0.1,2.8-0.1,4.4-0.5c1.6-0.4,3.5-1.1,5.4-2c0.4,0.4,0.6,0.7,1,1.1c-0.5,0.8-1.2,1.5-2.1,2.3c-0.8,0.7-1.8,1.5-3,2.2
			c-1.1,0.7-2.4,1.5-3.9,2.2c-1.4,0.7-2.8,1.3-4.1,1.6c-1.3,0.3-2.6,0.4-3.8,0.3s-2.4-0.4-3.5-1c-1.4-0.7-2.6-1.5-3.7-2.4
			c-1.1-0.9-2-1.9-2.7-2.9c-0.7-1.1-1.3-2.2-1.7-3.5c-0.4-1.3-0.6-2.6-0.7-3.9c-0.1-1.3,0-2.6,0.2-3.9s0.6-2.7,1.1-4
			c0.5-1.4,1.2-2.6,2-3.8c0.8-1.2,1.7-2.3,2.8-3.4c1.1-1,2.3-2,3.7-2.9c1.4-0.9,2.8-1.5,4.2-2c1.4-0.4,2.8-0.7,4.2-0.7
			c1.4,0,2.8,0.2,4.2,0.6c1.4,0.4,2.6,1,3.5,1.7c0.9,0.7,1.6,1.5,2.1,2.5C499,104.3,499.2,105.4,499.2,106.6z M478.7,113.8
			c0.1,1.3,0.4,2.6,0.8,4c2-0.7,3.7-1.4,5.2-2.2c1.4-0.7,2.6-1.4,3.4-2.2s1.4-1.5,1.6-2.2c0.4-1.1,0.4-2.2,0-3.2
			c-0.4-1-1.1-1.9-2.2-2.8c-1.1-0.9-2.2-1.4-3.1-1.5c-1-0.1-1.9,0.1-2.7,0.7c-0.8,0.6-1.5,1.3-1.9,2c-0.5,0.8-0.7,1.6-0.8,2.6
			C478.6,110.9,478.6,112.5,478.7,113.8z"/>
		<path class="st1" d="M515.5,101.9c0.9,0.9,1.5,1.9,1.8,3.1c0.3,1.2,0.2,2.6-0.2,4.1c0.9-0.7,2.1-1.4,3.7-2.2
			c0.8-0.4,1.7-0.8,2.6-1.1c1-0.3,2-0.7,3.2-0.9c1.2-0.3,2.3-0.3,3.5-0.1c1.2,0.2,2.3,0.7,3.5,1.4c1.1,0.7,2,1.5,2.7,2.4
			c0.7,0.9,1.1,1.9,1.2,2.9c0.2,1.1,0.2,2.3,0,3.6c-0.1,1.3-0.4,2.8-0.9,4.5c-0.5,1.8-0.9,3.4-1.2,4.8s-0.6,2.7-0.7,3.9
			c-0.2,1.1-0.3,2.1-0.3,2.9c-0.1,2.5,0.6,3.6,2.1,3.5c0,0.4,0,0.6,0,0.9c-1.3,0.7-2.4,1.3-3.4,1.9c-1,0.6-1.9,1.1-2.9,1.6
			c-1,0.6-2.1,1.2-3.3,1.9c-0.9-0.9-1.5-1.8-1.9-2.7c-0.4-0.9-0.6-1.8-0.5-2.8c0.1-0.6,0.2-1.6,0.4-2.8c0.2-1.3,0.5-2.8,0.9-4.7
			c0.4-1.9,0.9-4.1,1.4-6.7c0.4-1.8,0.6-3.3,0.6-4.7s-0.2-2.5-0.6-3.3c-0.4-0.9-0.9-1.6-1.7-2c-1.1-0.7-2.5-0.9-4-0.6
			c-1.6,0.2-3.4,1-5.4,2.1c-0.5,2.3-1,4.4-1.3,6.3c-0.3,1.8-0.6,3.4-0.8,4.7c-0.2,1.3-0.2,2.4-0.2,3.2c0,1.2,0.3,2.1,0.7,2.7
			c0.5,0.6,1.2,0.9,2.1,0.8c-0.1,0.4-0.1,0.6-0.2,0.9c-1.3,0.7-2.4,1.3-3.4,1.9c-1,0.6-1.9,1.1-2.9,1.7c-1,0.6-2.1,1.2-3.3,1.9
			c-1-0.8-1.7-1.7-2.2-2.6s-0.8-1.7-0.8-2.6c0-0.4,0-1.2,0.2-2.2c0.1-1,0.3-2.3,0.6-3.9c0.3-1.6,0.6-3.5,1-5.7
			c0.4-2.2,0.8-4.7,1.4-7.4c0.4-1.7,0.4-2.9,0.1-3.6c-0.3-0.7-1.1-0.8-2.2-0.4c-0.3-0.6-0.4-0.9-0.7-1.4c1.5-0.7,2.7-1.3,3.9-1.8
			c1.2-0.5,2.2-1,3.4-1.6S514,102.6,515.5,101.9z"/>
		<path class="st1" d="M561.7,149.2c-0.8-0.9-1.3-2-1.5-3.2c-0.2-1.2,0-2.6,0.5-4.1c-0.9,0.6-2.1,1.3-3.7,2c-0.8,0.4-1.7,0.7-2.6,1
			c-1,0.3-2,0.6-3.1,0.8c-1.1,0.2-2.2,0.2-3.3,0c-1.1-0.2-2.2-0.7-3.2-1.5c-1.1-0.7-1.9-1.5-2.6-2.4c-0.6-0.9-1.1-1.8-1.3-2.8
			c-0.2-1-0.2-2.2-0.1-3.5c0.1-1.3,0.5-2.8,0.9-4.4c0.5-1.7,0.9-3.4,1.2-4.9c0.3-1.5,0.6-2.8,0.8-4s0.4-2.2,0.4-3.1
			c0.2-2.7-0.2-3.8-1.4-3.3c-0.2-0.4-0.3-0.6-0.6-1c1.3-0.7,2.4-1.3,3.5-1.8s2-1,3.1-1.6c1-0.5,2.2-1.1,3.5-1.8
			c0.9,0.9,1.6,1.8,2,2.8c0.4,0.9,0.5,1.9,0.4,2.8c-0.1,0.6-0.3,1.6-0.5,2.8s-0.6,2.8-1.1,4.7c-0.5,1.9-1,4.1-1.7,6.6
			c-0.4,1.8-0.7,3.3-0.7,4.7c-0.1,1.3,0.1,2.5,0.4,3.4c0.3,0.9,0.8,1.6,1.5,2.1c1.1,0.7,2.3,1,3.9,0.8s3.3-0.8,5.4-1.8
			c0.7-2.3,1.3-4.4,1.8-6.2c0.5-1.8,0.9-3.4,1.1-4.8c0.3-1.4,0.4-2.5,0.5-3.4c0.1-1.3-0.1-2.3-0.4-2.8c-0.4-0.6-1-0.8-1.9-0.6
			c-0.1-0.3-0.1-0.5-0.2-0.8c1.4-0.6,2.5-1.2,3.6-1.7c1.1-0.5,2.1-1,3.1-1.4c1.1-0.5,2.2-1,3.6-1.6c1,0.9,1.7,1.9,2.1,2.8
			c0.5,0.9,0.7,1.8,0.6,2.7c0,0.4-0.1,1.2-0.4,2.2c-0.2,1-0.5,2.3-1,3.9c-0.4,1.6-0.9,3.4-1.5,5.6c-0.6,2.1-1.4,4.6-2.1,7.3
			c-0.4,1.3-0.4,2.3-0.1,3c0.3,0.7,0.9,1.1,1.8,1.1c0.2,0.6,0.3,0.9,0.6,1.5c-1.5,0.5-2.8,1-4,1.4c-1.2,0.4-2.3,0.8-3.4,1.3
			C564.4,148.1,563.2,148.6,561.7,149.2z"/>
		<path class="st1" d="M605.7,125.6c0.8,0.8,1.4,1.6,1.8,2.4s0.5,1.7,0.5,2.6c-1.5,0.7-2.7,1.2-3.8,1.7c-1.1,0.5-2.3,1-3.8,1.7
			c-0.1-0.3-0.2-0.4-0.3-0.7c0.6-0.4,0.8-0.9,0.5-1.6c-0.2-0.7-0.9-1.5-2-2.5c-1.1-1-2.2-1.8-3.2-2.3s-2.1-0.9-3-1.1
			c-2-0.3-2.8,0.4-2.5,2c0.2,0.8,0.8,1.7,1.9,2.8s2.7,2.2,4.8,3.5c1.4,0.9,2.6,1.7,3.6,2.5c1,0.8,1.9,1.6,2.5,2.3
			c0.7,0.7,1.1,1.4,1.4,2.1c0.4,1,0.7,2,0.8,3c0.1,1,0.1,2-0.1,3c-0.2,1-0.6,2-1.1,2.9s-1.3,1.8-2.1,2.6c-0.9,0.8-1.9,1.5-3.1,2.1
			s-2.5,1.1-3.9,1.5c-1.4,0.4-2.8,0.6-4.1,0.5c-1.3,0-2.5-0.3-3.7-0.7c-1.2-0.4-2.3-1-3.4-1.6c-1.1-0.6-2.2-1.3-3.2-2.1
			c-1-0.8-1.9-1.7-2.7-2.6c-0.8-0.9-1.4-2-1.9-3s-0.8-2-0.8-2.9c-0.1-0.8,0.1-1.5,0.5-2.1c1.5-0.7,2.6-1.2,3.7-1.7s2.3-1,3.8-1.6
			c0.3,0.3,0.5,0.5,0.8,0.8c-1.4,0.8-1.6,1.9-0.7,3.5c0.5,0.8,1,1.6,1.6,2.3s1.3,1.5,2,2.2c0.8,0.7,1.5,1.3,2.4,1.9
			c0.8,0.6,1.7,1.1,2.6,1.5c1.8,0.9,3.3,1.3,4.3,1.2c1.1-0.1,1.7-0.6,1.9-1.6c0.2-1-0.2-2.3-1.1-3.9c-0.5-0.8-1.3-1.6-2.5-2.5
			c-1.2-0.9-2.7-1.8-4.6-2.8c-1.9-1-3.5-2-4.8-3c-1.3-1-2.2-2-2.9-3c-0.7-1-1-2-1-3c0-1,0.3-1.9,0.9-2.9c0.6-1,1.3-1.8,2-2.5
			c0.7-0.7,1.4-1.2,2.2-1.6c0.8-0.4,1.6-0.8,2.6-1.1c0.9-0.3,1.9-0.6,2.9-0.9c1-0.3,2.2-0.4,3.4-0.4s2.6,0.1,4.1,0.3
			c1.5,0.2,2.8,0.6,3.9,1.1C603.9,124.2,604.9,124.8,605.7,125.6z"/>
	</g>
</g>
</svg>
