<?xml version="1.0" encoding="utf-8"?>
<!-- Generator: Adobe Illustrator 27.5.0, SVG Export Plug-In . SVG Version: 6.00 Build 0)  -->
<svg version="1.1" id="Layer_1" xmlns="http://www.w3.org/2000/svg" xmlns:xlink="http://www.w3.org/1999/xlink" x="0px" y="0px"
	 viewBox="0 0 40.25 40.54" style="enable-background:new 0 0 40.25 40.54;" xml:space="preserve">
<style type="text/css">
	.st0{fill:#0000FF;}
</style>
<g>
	<path class="st0" d="M31.7,4.16c2.2,1.61,4.06,3.41,5.39,5.61c1.38,2.27,2.54,4.71,2.94,7.3c0.4,2.59,0.21,5.31-0.42,7.89
		c-0.61,2.49-1.97,4.77-3.58,6.97s-3.56,3.87-5.75,5.2c-2.27,1.38-4.61,2.78-7.2,3.18s-5.36,0.29-7.95-0.34
		c-2.49-0.61-4.72-2.14-6.92-3.75s-4.49-3.18-5.82-5.37c-1.38-2.27-1.74-5.05-2.14-7.64S-0.11,18,0.52,15.42
		c0.61-2.49,1.2-5.24,2.81-7.44s4.04-3.61,6.23-4.94c2.27-1.38,4.73-2.47,7.31-2.87c2.59-0.4,5.24-0.05,7.83,0.58
		C27.21,1.35,29.5,2.55,31.7,4.16z"/>
</g>
</svg>
