<?xml version="1.0" encoding="utf-8"?>
<!-- Generator: Adobe Illustrator 27.5.0, SVG Export Plug-In . SVG Version: 6.00 Build 0)  -->
<svg version="1.1" id="Layer_1" xmlns="http://www.w3.org/2000/svg" xmlns:xlink="http://www.w3.org/1999/xlink" x="0px" y="0px"
	 viewBox="0 0 340.92 53.87" style="enable-background:new 0 0 340.92 53.87;" xml:space="preserve">
<style type="text/css">
	.st0{fill:#0000FF;}
	.st1{fill:#D8D9CF;}
</style>
<g>
	<path class="st0" d="M340.83,36.97c0.08,0.35,0.11,0.74,0.08,1.15c0,7.17-8.62,8.44-14.04,8.46c-5.41,0.03-12.47-0.39-16.56,3.99
		c-0.97,1.05-1.88,1.88-2.36,3.3c0.71-2.14,0.94-4.05,2.11-6.06c1.11-1.89,2.32-3.74,3.61-5.5c-0.3,0.38-3.34-0.67-3.83-0.71
		c-1.8-0.2-4.79-1.06-6.44-0.13l-0.03-0.05c2.11-1.18,3.06-3.17,4.58-4.89l2.05-1.26l1.77-1.03c6.46-3.04,13.67-4.65,20.48-2.82
		c0.75,0.18,1.5,0.39,2.23,0.62c0.6,0.21,1.24,0.44,1.86,0.73C338.39,33.67,340.36,35.03,340.83,36.97z"/>
	<path class="st1" d="M340.66,34.13c0.09,0.94,0.19,1.88,0.24,2.82l-0.08,0.01c-0.47-1.94-2.44-3.3-4.52-4.21
		c-0.62-0.29-1.26-0.52-1.86-0.73c-0.73-0.23-1.48-0.44-2.23-0.62c-6.81-1.83-14.02-0.22-20.48,2.82l-1.77,1.03l-2.05,1.26
		l-1.34,0.83c-4.7,2.86-9.31,6.06-14.42,8.2c-2.42,1.02-5.11,1.7-7.76,1.46c-1.75-0.17-3.62-0.15-4.88-1.59
		c-0.76-0.85-1.02-1.96-0.85-3.01c0.09-0.56,0.32-1.11,0.68-1.59c2.3-3.15,7.47-2.11,10.78-1.9c0.63,0.03,1.27,0.03,1.9,0.02
		c1.86-0.11,3.59-0.62,4.77-2.02c0.21-0.36,0.35-0.7,0.45-1.03h0.02c0.28-0.73,0.48-1.47,0.62-2.2c0.11-0.82,0.17-1.64,0.23-2.44
		l0.12-2.12c0.04-0.7,0.06-1.39,0.12-2.07c0.03-2.08,0.18-4.18,0.3-6.28l0.09-2.08c-0.03-1.12-0.06-2.2-0.01-3.3
		c0.92-0.36,1.74-0.73,2.62-1.23l2.38-1.2c8.05-3.96,17.67-5.82,26.56-4.03c0.63,0.1,1.26,0.26,1.86,0.41
		c1.84,0.49,3.58,1.17,5.25,2.09c0.06,0.85,0.12,1.7,0.21,2.56c0.62,5.7,1.96,11.58,2.73,17.28L340.66,34.13z"/>
	<path class="st0" d="M286.01,29.8c2.73-0.05,12.67,1.15,11.25,6.08c-0.1,0.33-0.24,0.67-0.45,1.03c-1.18,1.39-2.91,1.91-4.77,2.02
		c-0.62,0.01-1.26,0.01-1.9-0.02c-3.31-0.21-8.47-1.25-10.78,1.9c-0.36,0.49-0.59,1.03-0.68,1.59h-0.02
		c0.41-4.61,3.34-8.16,4.23-12.48C283.92,29.85,284.95,29.82,286.01,29.8z"/>
	<path class="st0" d="M58.05,29.66c0.88,4.32,3.81,7.87,4.2,12.48l-0.01,0c-0.09-0.58-0.32-1.12-0.67-1.61
		c-2.32-3.15-7.49-2.09-10.79-1.89c-0.63,0.05-1.27,0.06-1.88,0.01c-1.86-0.1-3.59-0.6-4.79-2.01c-0.2-0.36-0.33-0.7-0.44-1.03
		c-1.44-4.91,8.52-6.12,11.25-6.08C55.96,29.54,57.01,29.59,58.05,29.66z"/>
	<path class="st1" d="M42.81,30.97c-0.06-0.71-0.09-1.41-0.12-2.11c-0.03-0.7-0.09-1.39-0.1-2.09c-0.06-2.06-0.21-4.17-0.32-6.28
		l-0.11-2.08c0.05-1.12,0.06-2.2,0.03-3.27v-0.01c-0.12-0.17-0.27-3.87-0.3-4.3c-0.15-1.39-0.62-3.43,0.11-4.72
		c2.62-4.62,8.46-5.7,13.5-6C56.22,0.06,56.93,0.02,57.6,0c1.7-0.01,3.33,0.06,5.05,0.24c3.81,0.17,7.59,0.46,11.29,0.8
		c1.98,0.18,3.95,0.38,5.82,0.61l5.2,0.68c3.63,0.43,7.1,0.97,10.49,1.59c1.73,0.32,3.43,0.64,5.09,0.98l3.7,0.8l4.68,1.11
		l4.64,1.02l9.52,1.73c13.3,2.33,27.29,4.17,41.49,4.46c1.77,0.04,3.57,0.04,5.3,0.04c1.39,0,2.73-0.03,4.08-0.08v0.02
		c13.99,0.07,28.64-0.46,41.49-3.08c1.88-0.33,3.74-0.71,5.58-1.11c1.69-0.32,3.36-0.67,4.98-1.03l4.85-1.08l3.46-0.73
		c5.81-1.21,11.67-2.42,17.8-3.44l5.44-0.94c1.73-0.24,3.46-0.49,5.19-0.67c1.94-0.23,3.85-0.44,5.83-0.62
		c1.86-0.18,3.74-0.34,5.63-0.47l2.84-0.19l1.27-0.15c1.65-0.17,3.33-0.26,5-0.24l2.1,0.11c5.06,0.33,10.9,1.38,13.52,6
		c0.73,1.29,0.24,3.34,0.12,4.71c-0.05,0.42-0.2,3.91-0.32,4.29v0.01c-0.05,1.11-0.02,2.18,0.01,3.3l-0.09,2.08
		c-0.12,2.09-0.27,4.2-0.3,6.28c-0.06,0.68-0.08,1.38-0.12,2.07l-0.12,2.12c-0.06,0.8-0.12,1.62-0.23,2.44
		c-0.14,0.73-0.34,1.47-0.62,2.2h-0.02c1.43-4.93-8.52-6.12-11.25-6.08c-1.06,0.01-2.09,0.04-3.12,0.12
		c-1.24,0.08-2.47,0.21-3.69,0.38l-1.83,0.28c-0.13,0.05-1.09,0.11-1.72,0.16l-2.07,0.18c-5.51,0.51-10.95,1.19-16.3,2.04l-4.22,0.7
		c-5.44,1.02-10.84,2.09-16.24,3.18l-8.07,1.67c-13.96,3.08-28.6,5.49-44.22,6.25c-2.12,0.1-4.26,0.18-6.41,0.21
		c-2.08,0.05-4.22,0.05-6.34,0.05c-7.44,0.05-15.1-0.38-22.4-1.21l-0.03,0.03c-11.43-1.17-21.82-3.03-32.42-5.26l-5.19-1.03
		c-8.62-1.7-17.35-3.35-26.46-4.85c-1.63-0.26-3.26-0.5-4.92-0.72c-4.59-0.63-9.23-1.13-13.92-1.52l-3.53-0.26
		c-0.36-0.02-0.43-0.04-0.56-0.06l-0.39-0.06l-0.78-0.11c-1.04-0.13-2.07-0.23-3.12-0.3c-1.04-0.08-2.09-0.12-3.14-0.14
		c-2.73-0.04-12.69,1.17-11.25,6.08l-0.03,0.02c-0.26-0.73-0.47-1.47-0.62-2.21C42.92,32.59,42.85,31.79,42.81,30.97z"/>
	<path class="st0" d="M33.01,36.26c1.48,1.74,2.44,3.7,4.56,4.88l-0.03,0.06c-1.64-0.92-4.65-0.06-6.44,0.12
		c-0.52,0.06-3.53,1.11-3.82,0.7c1.27,1.79,2.48,3.62,3.59,5.52c1.18,2.02,1.38,3.94,2.09,6.08c-0.47-1.43-1.36-2.27-2.36-3.32
		c-4.09-4.37-11.16-3.96-16.56-3.97c-5.4-0.01-14.02-1.3-14.02-8.47c-0.04-0.41,0-0.8,0.09-1.15c0.45-1.96,2.41-3.3,4.5-4.23
		c0.62-0.27,1.26-0.5,1.87-0.7c0.72-0.24,1.47-0.45,2.21-0.62c6.82-1.85,14.04-0.23,20.49,2.81l1.79,1.03L33.01,36.26z"/>
	<path class="st1" d="M42.68,28.86c0.04,0.7,0.07,1.39,0.12,2.11c0.05,0.82,0.12,1.62,0.21,2.44c0.15,0.75,0.36,1.49,0.62,2.21
		l0.03-0.02c0.11,0.33,0.24,0.67,0.44,1.03c1.2,1.41,2.93,1.91,4.79,2.01c0.6,0.05,1.24,0.03,1.88-0.01
		c3.31-0.2,8.47-1.26,10.79,1.89c0.35,0.49,0.58,1.03,0.67,1.61c0.2,1.04-0.09,2.15-0.84,3c-1.26,1.42-3.15,1.42-4.89,1.59
		c-2.64,0.24-5.35-0.42-7.76-1.44c-5.09-2.16-9.7-5.34-14.4-8.22l-1.33-0.81l-2.05-1.28l-1.79-1.03
		c-6.46-3.03-13.67-4.66-20.49-2.81c-0.74,0.17-1.48,0.38-2.21,0.62c-0.61,0.2-1.25,0.42-1.87,0.7c-2.09,0.92-4.05,2.27-4.5,4.23
		L0,36.68c0.06-0.94,0.14-1.86,0.25-2.82L0.58,31c0.78-5.7,2.11-11.56,2.73-17.26l0.21-2.56c1.64-0.96,3.41-1.61,5.25-2.09
		c0.6-0.17,1.23-0.3,1.83-0.43c8.93-1.79,18.54,0.08,26.57,4.05c0.8,0.38,1.59,0.79,2.38,1.2c0.89,0.49,1.71,0.87,2.63,1.23v0.01
		c0.03,1.08,0.02,2.15-0.03,3.27l0.11,2.08c0.1,2.11,0.26,4.21,0.32,6.28C42.59,27.47,42.65,28.16,42.68,28.86z"/>
</g>
<g>
	<path class="st0" d="M84.24,26.51c-0.57-0.1-0.95-0.32-1.14-0.66c-0.19-0.34-0.26-0.67-0.2-0.99c0.03-0.2,0.1-0.37,0.2-0.51
		c0.1-0.13,0.21-0.19,0.34-0.17c0.28,0.05,0.5,0.17,0.67,0.38c0.17,0.21,0.45,0.42,0.83,0.64c0.15,0.1,0.34,0.19,0.55,0.28
		c0.21,0.08,0.48,0.15,0.79,0.2c0.55,0.09,1.16,0.1,1.82,0.01c0.66-0.09,1.29-0.28,1.89-0.59c0.6-0.31,1.12-0.74,1.57-1.31
		c0.45-0.57,0.75-1.3,0.9-2.21c0.11-0.64,0.05-1.23-0.17-1.76c-0.22-0.53-0.6-1.04-1.13-1.54c-0.53-0.5-1.19-1.04-1.98-1.63
		c-0.39-0.29-0.64-0.52-0.76-0.68c-0.12-0.16-0.17-0.34-0.14-0.52c0.02-0.09,0.04-0.17,0.07-0.23c0.03-0.06,0.06-0.12,0.09-0.17
		c0.14-0.26,0.35-0.57,0.63-0.93c0.28-0.36,0.58-0.74,0.92-1.14s0.66-0.77,0.97-1.13s0.57-0.64,0.75-0.85
		c0.26-0.3,0.51-0.5,0.76-0.62c0.25-0.12,0.52-0.19,0.83-0.21c0.42-0.04,0.9-0.07,1.42-0.07c0.52-0.01,1.06-0.01,1.61-0.01
		c0.55,0,1.09,0,1.62,0.02c0.53,0.01,1.02,0.03,1.47,0.05c0.22,0.04,0.31,0.19,0.27,0.44c-0.02,0.11-0.11,0.28-0.29,0.52
		c-0.17,0.24-0.38,0.48-0.63,0.73c-0.25,0.25-0.51,0.46-0.79,0.62c-0.27,0.16-0.52,0.23-0.75,0.21c-0.33-0.04-0.75-0.08-1.26-0.13
		c-0.5-0.05-1.01-0.1-1.52-0.17c-0.51-0.07-0.97-0.12-1.39-0.15c-0.42-0.03-0.73-0.05-0.94-0.05c-0.11,0-0.29,0.1-0.53,0.29
		c-0.24,0.2-0.48,0.42-0.72,0.66c-0.24,0.24-0.4,0.43-0.48,0.57c-0.15,0.2-0.12,0.37,0.09,0.5c1.01,0.63,1.92,1.26,2.73,1.91
		c0.81,0.65,1.43,1.35,1.86,2.12c0.43,0.76,0.56,1.62,0.4,2.58c-0.18,1.05-0.64,1.97-1.38,2.76c-0.74,0.79-1.65,1.44-2.74,1.95
		c-1.09,0.51-2.25,0.84-3.48,1.01C86.6,26.72,85.4,26.71,84.24,26.51z"/>
	<path class="st0" d="M97.86,28.87c-0.57-0.11-0.94-0.33-1.12-0.68c-0.18-0.35-0.24-0.68-0.18-0.99c0.04-0.2,0.11-0.37,0.21-0.5
		c0.1-0.13,0.22-0.19,0.34-0.16c0.27,0.05,0.5,0.18,0.67,0.4s0.44,0.43,0.82,0.65c0.15,0.1,0.33,0.2,0.54,0.29
		c0.21,0.09,0.47,0.16,0.79,0.22c0.55,0.1,1.16,0.12,1.82,0.04c0.66-0.07,1.29-0.26,1.9-0.55c0.61-0.29,1.14-0.72,1.6-1.28
		c0.46-0.56,0.77-1.29,0.94-2.19c0.12-0.64,0.08-1.23-0.14-1.76c-0.21-0.53-0.58-1.05-1.1-1.56c-0.52-0.51-1.17-1.06-1.95-1.67
		c-0.38-0.3-0.63-0.53-0.75-0.7c-0.12-0.17-0.16-0.34-0.13-0.52c0.02-0.09,0.04-0.17,0.07-0.23c0.03-0.06,0.06-0.12,0.09-0.17
		c0.14-0.26,0.36-0.56,0.64-0.92c0.29-0.35,0.6-0.73,0.94-1.12s0.67-0.76,0.99-1.11s0.58-0.63,0.77-0.84
		c0.26-0.29,0.52-0.5,0.77-0.61s0.53-0.18,0.84-0.2c0.42-0.03,0.9-0.05,1.42-0.04s1.06,0.01,1.61,0.02
		c0.55,0.01,1.09,0.03,1.61,0.05s1.02,0.05,1.47,0.08c0.22,0.04,0.31,0.19,0.26,0.45c-0.02,0.11-0.12,0.28-0.3,0.51
		c-0.18,0.23-0.39,0.47-0.65,0.72c-0.26,0.25-0.52,0.45-0.8,0.6c-0.28,0.16-0.53,0.22-0.75,0.2c-0.33-0.04-0.75-0.09-1.25-0.15
		c-0.5-0.06-1.01-0.12-1.52-0.2c-0.51-0.08-0.97-0.14-1.39-0.18c-0.42-0.04-0.73-0.06-0.94-0.06c-0.11,0-0.29,0.09-0.54,0.28
		c-0.25,0.19-0.49,0.41-0.73,0.64s-0.41,0.43-0.49,0.56c-0.15,0.2-0.13,0.37,0.08,0.5c1,0.65,1.9,1.3,2.69,1.96
		c0.8,0.66,1.4,1.38,1.82,2.15c0.41,0.77,0.53,1.63,0.35,2.59c-0.2,1.05-0.67,1.96-1.43,2.74c-0.76,0.78-1.68,1.41-2.78,1.9
		c-1.1,0.49-2.27,0.8-3.5,0.95C100.21,29.13,99.02,29.09,97.86,28.87z"/>
	<path class="st0" d="M115.15,31.51c-0.9-0.18-1.57-0.57-2.02-1.17c-0.45-0.6-0.7-1.34-0.75-2.22c-0.05-0.87,0.07-1.82,0.35-2.84
		c0.28-1.02,0.69-2.03,1.22-3.03c0.55-1.03,1.21-2.03,1.99-3s1.63-1.81,2.55-2.52c0.92-0.71,1.88-1.24,2.88-1.57
		s1.99-0.41,2.98-0.21c0.92,0.18,1.6,0.57,2.05,1.18c0.45,0.6,0.71,1.34,0.76,2.22c0.06,0.88-0.06,1.82-0.34,2.83
		c-0.28,1.01-0.69,2.01-1.2,2.99c-0.57,1.05-1.25,2.05-2.03,3.01s-1.65,1.8-2.58,2.52c-0.93,0.72-1.89,1.25-2.88,1.6
		C117.12,31.63,116.13,31.71,115.15,31.51z M115.67,30.73c0.48,0.09,1.01-0.02,1.59-0.34c0.59-0.32,1.19-0.8,1.81-1.43
		c0.62-0.63,1.23-1.37,1.83-2.21s1.16-1.74,1.67-2.68c0.51-0.93,0.94-1.86,1.29-2.8c0.36-0.94,0.61-1.81,0.76-2.62
		c0.15-0.81,0.16-1.47,0.02-1.99s-0.45-0.83-0.94-0.93c-0.64-0.13-1.35,0.1-2.13,0.69c-0.78,0.59-1.57,1.41-2.37,2.46
		c-0.8,1.05-1.53,2.21-2.2,3.46c-0.49,0.93-0.92,1.87-1.3,2.81c-0.38,0.94-0.65,1.82-0.83,2.62c-0.18,0.8-0.21,1.47-0.11,2
		C114.88,30.32,115.18,30.63,115.67,30.73z"/>
	<path class="st0" d="M130.41,34.57c-0.22-0.04-0.44-0.14-0.66-0.31c-0.22-0.17-0.38-0.36-0.5-0.58s-0.15-0.43-0.12-0.63
		c0.11-0.63,0.43-1.31,0.96-2.05c0.53-0.74,1.28-1.53,2.22-2.36c0.95-0.83,2.08-1.69,3.38-2.59c1.07-0.71,1.97-1.24,2.7-1.59
		c0.73-0.36,1.26-0.51,1.57-0.45c0.37,0.06,0.7,0.3,0.99,0.71c0.16,0.29,0.23,0.43,0.23,0.41s0-0.03,0.02-0.03
		c0.04,0.01,0.07,0,0.1-0.01c0.03-0.01,0.06-0.06,0.09-0.13c0.28-0.33,0.46-0.54,0.54-0.63c0.07-0.09,0.1-0.14,0.08-0.14
		c0.12-0.17,0.29-0.23,0.49-0.2c0.2,0.04,0.41,0.11,0.61,0.23c0.21,0.12,0.37,0.25,0.5,0.4c0.13,0.15,0.18,0.28,0.16,0.41
		c-0.02,0.09-0.1,0.27-0.26,0.52l-4.32,7.44c-0.32,0.53-0.26,0.84,0.18,0.91c0.29,0.05,0.69-0.05,1.2-0.29
		c0.51-0.24,0.99-0.56,1.46-0.96c0.04-0.03,0.08-0.05,0.12-0.06c0.04-0.01,0.08-0.01,0.12-0.01c0.07,0.01,0.12,0.05,0.15,0.11
		s0.03,0.15,0.01,0.26c-0.03,0.18-0.22,0.45-0.58,0.81c-0.36,0.36-0.75,0.67-1.17,0.94c-0.66,0.42-1.3,0.71-1.92,0.89
		c-0.62,0.18-1.14,0.23-1.56,0.16c-0.22-0.04-0.43-0.14-0.63-0.31s-0.36-0.35-0.47-0.56c-0.12-0.21-0.16-0.42-0.12-0.62
		c0.03-0.17,0.12-0.37,0.27-0.61c-0.05,0.07-0.03,0.02,0.07-0.13c0.09-0.15,0.23-0.37,0.42-0.65c0.19-0.28,0.39-0.57,0.59-0.88
		c0.2-0.31,0.38-0.58,0.54-0.82c0.12-0.15,0.17-0.27,0.16-0.36c-0.01-0.09-0.08-0.08-0.19,0.01c-1.27,0.99-2.36,1.79-3.28,2.38
		c-0.92,0.59-1.71,0.99-2.37,1.2C131.57,34.61,130.96,34.67,130.41,34.57z M132.82,32.77c0.37,0.06,0.98-0.16,1.85-0.68
		c0.86-0.51,1.85-1.23,2.96-2.16c0.79-0.66,1.44-1.27,1.92-1.84c0.49-0.57,0.76-1.01,0.81-1.32c0.03-0.15-0.08-0.36-0.31-0.65
		c-0.13-0.14-0.26-0.25-0.4-0.34c-0.14-0.09-0.25-0.14-0.34-0.16c-0.33-0.06-0.8,0.03-1.4,0.27s-1.17,0.54-1.7,0.9
		c-0.62,0.42-1.23,0.93-1.82,1.52c-0.59,0.59-1.09,1.19-1.5,1.79c-0.41,0.6-0.65,1.12-0.72,1.57c-0.05,0.29-0.02,0.54,0.1,0.74
		C132.38,32.61,132.57,32.73,132.82,32.77z"/>
	<path class="st0" d="M146.11,36.99c-0.13-0.01-0.27-0.07-0.41-0.17c-0.14-0.11-0.27-0.24-0.38-0.41c-0.11-0.17-0.18-0.35-0.22-0.55
		c-0.04-0.2-0.01-0.38,0.1-0.54l3.69-7.37c0.35-0.66,0.36-1.01,0.03-1.04c-0.15-0.01-0.34-0.01-0.56,0.01
		c-0.23,0.02-0.48,0.1-0.75,0.25c-0.27,0.15-0.58,0.39-0.9,0.74c-0.08,0.07-0.17,0.09-0.27,0.08s-0.17-0.09-0.19-0.23
		c0.01-0.13,0.07-0.29,0.17-0.48c0.1-0.19,0.22-0.38,0.35-0.56s0.26-0.33,0.36-0.43c0.37-0.4,0.83-0.71,1.38-0.93
		c0.55-0.22,1.19-0.31,1.92-0.27c0.3,0.02,0.54,0.12,0.72,0.3c0.18,0.17,0.3,0.39,0.36,0.63c0.05,0.25,0.02,0.51-0.12,0.78
		l-2.06,4.24c-0.07,0.13-0.04,0.2,0.07,0.23s0.2-0.01,0.26-0.12c0.83-1.19,1.65-2.21,2.47-3.06c0.82-0.85,1.6-1.49,2.36-1.93
		c0.76-0.43,1.45-0.63,2.08-0.58c0.5,0.04,0.89,0.24,1.17,0.59c0.28,0.35,0.43,0.77,0.44,1.27c0.02,0.5-0.12,1.03-0.41,1.61
		l-2.86,5.47c-0.33,0.61-0.32,0.93,0.04,0.96c0.19,0.01,0.43-0.04,0.73-0.17c0.3-0.12,0.6-0.28,0.91-0.46
		c0.3-0.18,0.58-0.36,0.83-0.52c0.25-0.17,0.41-0.28,0.49-0.35c0.06-0.03,0.11-0.07,0.15-0.1c0.04-0.03,0.08-0.05,0.12-0.05
		c0.06,0,0.11,0.04,0.16,0.1c0.05,0.06,0.07,0.13,0.07,0.2c-0.02,0.22-0.1,0.42-0.25,0.6c-0.57,0.55-1.17,1.05-1.81,1.48
		s-1.28,0.77-1.93,1c-0.66,0.23-1.29,0.32-1.9,0.27c-0.19-0.02-0.37-0.1-0.56-0.24c-0.18-0.15-0.32-0.33-0.41-0.54
		s-0.07-0.42,0.04-0.62c0.66-1.26,1.34-2.5,2.03-3.71c0.69-1.22,1.34-2.46,1.94-3.72c0.29-0.59,0.41-1.03,0.36-1.29
		c-0.05-0.27-0.2-0.42-0.44-0.46c-0.22-0.02-0.48,0.06-0.78,0.25s-0.63,0.45-1,0.79c-0.37,0.34-0.77,0.74-1.18,1.2
		c-0.23,0.24-0.53,0.61-0.92,1.11c-0.39,0.49-0.82,1.06-1.3,1.69c-0.48,0.64-0.97,1.3-1.47,1.99s-0.97,1.35-1.41,1.99
		c-0.24,0.36-0.46,0.63-0.67,0.82S146.32,37.01,146.11,36.99z"/>
	<path class="st0" d="M161.79,38.18c-0.35-0.01-0.66-0.15-0.91-0.41c-0.25-0.26-0.37-0.52-0.36-0.78c0-0.07,0.02-0.15,0.04-0.24
		c0.02-0.08,0.05-0.17,0.09-0.26c0.74-1.39,1.39-2.73,1.95-4c0.55-1.28,1.05-2.43,1.5-3.46c0.08-0.18,0.04-0.28-0.13-0.29
		c-0.09,0-0.27,0.04-0.52,0.12c-0.25,0.08-0.52,0.2-0.8,0.35s-0.52,0.29-0.73,0.43c-0.15,0.09-0.28,0.11-0.38,0.06
		s-0.15-0.13-0.14-0.24c0-0.11,0.1-0.27,0.28-0.47c0.18-0.2,0.44-0.42,0.75-0.67c0.32-0.25,0.68-0.51,1.08-0.77
		c0.4-0.27,0.82-0.52,1.25-0.75c0.43-0.24,0.85-0.43,1.27-0.58c0.21-0.09,0.42-0.06,0.63,0.07s0.37,0.29,0.49,0.49
		c0.11,0.2,0.14,0.37,0.08,0.49l-3.61,7.85c-0.06,0.11-0.11,0.22-0.14,0.34c-0.03,0.12-0.05,0.23-0.05,0.32
		c0,0.11,0.04,0.19,0.12,0.23c0.08,0.04,0.16,0.06,0.24,0.07c0.22,0.01,0.51-0.1,0.87-0.32s0.73-0.5,1.12-0.83
		c0.4-0.33,0.76-0.65,1.09-0.95c0.04-0.05,0.08-0.08,0.12-0.08c0.06,0,0.11,0.03,0.17,0.08c0.05,0.05,0.08,0.11,0.08,0.18
		c-0.01,0.3-0.21,0.68-0.6,1.14c-0.39,0.46-0.88,0.92-1.45,1.36c-0.58,0.44-1.17,0.81-1.77,1.11
		C162.79,38.06,162.26,38.2,161.79,38.18z M167.81,23.73c-0.34-0.01-0.61-0.15-0.81-0.41c-0.21-0.26-0.3-0.56-0.29-0.89
		c0.02-0.5,0.21-0.95,0.58-1.34c0.37-0.39,0.82-0.57,1.34-0.55c0.35,0.01,0.62,0.17,0.81,0.48c0.18,0.31,0.27,0.63,0.26,0.96
		c-0.02,0.47-0.21,0.88-0.58,1.24C168.74,23.58,168.31,23.75,167.81,23.73z"/>
	<path class="st0" d="M172.66,38.43c-0.52,0.01-0.97-0.17-1.34-0.52c-0.37-0.35-0.61-0.8-0.73-1.36s-0.07-1.15,0.15-1.77l1.73-4.81
		c0.12-0.36,0.18-0.62,0.16-0.8c-0.02-0.18-0.12-0.26-0.28-0.26c-0.15,0-0.39,0.13-0.71,0.37c-0.32,0.25-0.61,0.5-0.84,0.77
		c-0.11,0.11-0.2,0.19-0.28,0.23s-0.13,0.06-0.17,0.06c-0.17,0-0.25-0.06-0.25-0.19c0-0.11,0.03-0.24,0.09-0.38
		c0.06-0.14,0.17-0.31,0.32-0.52c0.31-0.43,0.65-0.83,1.02-1.2c0.37-0.37,0.74-0.7,1.11-0.98c0.37-0.28,0.72-0.51,1.06-0.67
		c0.33-0.16,0.62-0.25,0.87-0.25c0.19,0,0.36,0.07,0.52,0.2c0.16,0.14,0.28,0.3,0.37,0.47s0.1,0.35,0.05,0.52l-2.32,7.2
		c-0.2,0.64-0.22,1.14-0.08,1.5c0.15,0.36,0.46,0.54,0.95,0.53c0.58-0.01,1.16-0.2,1.74-0.58c0.58-0.38,1.12-0.89,1.6-1.52
		c0.49-0.63,0.87-1.31,1.16-2.04c0.29-0.73,0.43-1.46,0.42-2.19c0-0.37-0.08-0.72-0.22-1.03c-0.14-0.32-0.33-0.59-0.56-0.83
		c-0.15-0.17-0.26-0.32-0.33-0.47c-0.07-0.15-0.1-0.32-0.1-0.5c0-0.17,0.11-0.35,0.33-0.55s0.49-0.37,0.79-0.53
		c0.31-0.15,0.59-0.23,0.85-0.23c0.24,0,0.46,0.17,0.65,0.51c0.19,0.34,0.29,0.86,0.3,1.55c0.01,0.82-0.09,1.63-0.3,2.44
		c-0.21,0.8-0.54,1.6-0.96,2.39c-0.43,0.79-0.97,1.55-1.64,2.29c-0.85,1-1.71,1.78-2.59,2.33C174.3,38.14,173.46,38.42,172.66,38.43
		z"/>
	<path class="st0" d="M184.94,38.1c-0.43,0.03-0.88-0.1-1.35-0.37c-0.48-0.27-0.88-0.64-1.22-1.1c-0.34-0.46-0.52-0.94-0.55-1.42
		c-0.06-1.02,0.07-2.08,0.41-3.17c0.34-1.09,0.82-2.1,1.45-3.05c0.63-0.95,1.38-1.73,2.23-2.34c0.85-0.61,1.76-0.95,2.73-1.01
		c0.8-0.05,1.42,0.08,1.85,0.38s0.66,0.7,0.69,1.21c0.04,0.6-0.12,1.13-0.48,1.59c-0.35,0.46-0.84,0.87-1.45,1.23
		c-0.61,0.36-1.29,0.66-2.03,0.91c-0.74,0.25-1.49,0.47-2.25,0.67c-0.09,0.02-0.17,0.05-0.22,0.08c-0.05,0.03-0.1,0.09-0.13,0.19
		c-0.07,0.32-0.15,0.67-0.22,1.05c-0.07,0.38-0.1,0.73-0.1,1.04c0.04,0.65,0.22,1.17,0.53,1.55s0.76,0.56,1.34,0.52
		c0.62-0.04,1.14-0.22,1.57-0.56c0.43-0.33,0.81-0.7,1.14-1.09c0.17-0.22,0.33-0.33,0.46-0.34c0.19-0.01,0.29,0.08,0.3,0.26
		c0,0.04,0,0.08,0.01,0.14c0,0.06-0.01,0.1-0.05,0.14c-0.33,0.66-0.73,1.24-1.18,1.74c-0.46,0.5-0.97,0.91-1.54,1.22
		C186.29,37.88,185.65,38.05,184.94,38.1z M185.11,30.82c0.28-0.05,0.64-0.16,1.1-0.32c0.46-0.16,0.92-0.38,1.38-0.67
		c0.46-0.29,0.84-0.64,1.16-1.05s0.45-0.9,0.42-1.46c-0.01-0.22-0.09-0.42-0.23-0.6s-0.33-0.26-0.58-0.25
		c-0.37,0.02-0.75,0.2-1.15,0.52s-0.76,0.71-1.11,1.16c-0.35,0.45-0.63,0.91-0.84,1.37s-0.33,0.84-0.35,1.14
		C184.91,30.8,184.98,30.85,185.11,30.82z"/>
	<path class="st0" d="M194.16,37.47c-0.13,0.01-0.28-0.01-0.44-0.07s-0.32-0.15-0.45-0.28c-0.14-0.13-0.21-0.26-0.23-0.41
		c-0.02-0.2,0-0.45,0.06-0.72c0.06-0.28,0.15-0.63,0.25-1.05l1.92-7.16c0.07-0.23,0.08-0.44,0.03-0.61s-0.16-0.25-0.35-0.23
		c-0.3,0.03-0.56,0.11-0.79,0.23c-0.23,0.12-0.43,0.25-0.61,0.4c-0.1,0.09-0.21,0.12-0.33,0.09c-0.12-0.02-0.18-0.11-0.2-0.26
		c-0.04-0.22,0.03-0.47,0.21-0.75c0.19-0.28,0.44-0.54,0.75-0.78c0.26-0.23,0.56-0.43,0.92-0.59c0.36-0.16,0.72-0.26,1.09-0.3
		c0.52-0.06,0.88,0.04,1.07,0.29c0.2,0.25,0.28,0.61,0.27,1.07c-0.02,0.46-0.12,0.99-0.29,1.59l-0.89,3.05
		c-0.06,0.14-0.03,0.22,0.1,0.24s0.21-0.02,0.25-0.14c0.57-1.32,1.17-2.47,1.79-3.47s1.22-1.79,1.8-2.37
		c0.58-0.59,1.14-0.91,1.66-0.96s0.91,0.05,1.17,0.33s0.42,0.62,0.46,1.05c0.04,0.39,0,0.79-0.11,1.19
		c-0.12,0.41-0.29,0.75-0.51,1.03c-0.22,0.28-0.47,0.43-0.73,0.46c-0.19,0.02-0.33-0.06-0.43-0.24c-0.1-0.18-0.19-0.43-0.26-0.76
		c-0.05-0.28-0.12-0.51-0.23-0.69s-0.26-0.27-0.46-0.25c-0.24,0.03-0.5,0.21-0.79,0.55s-0.61,0.86-0.99,1.56
		c-0.16,0.28-0.37,0.67-0.63,1.18s-0.54,1.07-0.84,1.68c-0.29,0.61-0.58,1.23-0.88,1.84c-0.29,0.61-0.54,1.17-0.75,1.66
		c-0.36,0.85-0.66,1.49-0.89,1.93C194.67,37.21,194.42,37.44,194.16,37.47z"/>
	<path class="st0" d="M205.08,36.17c-0.54,0.08-1,0-1.4-0.22s-0.63-0.55-0.69-0.97c-0.06-0.44-0.01-0.8,0.15-1.08
		c0.17-0.28,0.35-0.43,0.56-0.46c0.13-0.02,0.28,0.03,0.46,0.13c0.17,0.11,0.37,0.23,0.58,0.37c0.25,0.15,0.53,0.31,0.85,0.47
		c0.32,0.16,0.67,0.21,1.06,0.16c0.42-0.06,0.74-0.26,0.93-0.59c0.2-0.33,0.28-0.68,0.24-1.05c-0.05-0.37-0.21-0.78-0.46-1.22
		c-0.25-0.44-0.55-0.87-0.89-1.27c-0.34-0.4-0.64-0.82-0.89-1.24c-0.25-0.43-0.4-0.81-0.45-1.17c-0.08-0.54,0-1.07,0.24-1.59
		c0.23-0.52,0.55-1.01,0.95-1.47c0.4-0.45,0.8-0.82,1.21-1.11s0.75-0.45,1-0.49c0.33-0.05,0.66-0.01,0.99,0.11
		c0.33,0.12,0.61,0.27,0.84,0.44c0.23,0.17,0.36,0.34,0.38,0.51c0.02,0.15-0.02,0.33-0.13,0.56c-0.11,0.22-0.25,0.43-0.41,0.61
		c-0.16,0.18-0.32,0.29-0.46,0.31c-0.13,0.02-0.26-0.02-0.4-0.13c-0.14-0.1-0.28-0.22-0.43-0.35c-0.15-0.13-0.33-0.24-0.54-0.33
		c-0.21-0.09-0.45-0.12-0.71-0.08c-0.28,0.04-0.5,0.19-0.66,0.44c-0.16,0.25-0.22,0.54-0.17,0.87c0.02,0.15,0.11,0.36,0.28,0.64
		c0.16,0.28,0.35,0.56,0.56,0.85c0.21,0.29,0.42,0.56,0.63,0.81c0.38,0.43,0.72,0.9,1,1.4c0.28,0.5,0.45,0.97,0.52,1.41
		c0.07,0.5-0.02,1.01-0.27,1.52c-0.25,0.52-0.61,1-1.08,1.46c-0.46,0.45-0.99,0.84-1.57,1.15
		C206.28,35.88,205.69,36.08,205.08,36.17z"/>
	<path class="st0" d="M213.68,34.93c-0.22,0.04-0.46,0.02-0.72-0.06c-0.26-0.08-0.49-0.21-0.67-0.37c-0.18-0.16-0.29-0.35-0.33-0.55
		c-0.12-0.62-0.06-1.38,0.18-2.26c0.24-0.88,0.66-1.88,1.25-2.99c0.59-1.11,1.35-2.31,2.26-3.61c0.75-1.04,1.41-1.85,1.97-2.44
		s1-0.92,1.31-0.98c0.37-0.07,0.76,0.04,1.17,0.32c0.25,0.22,0.37,0.32,0.36,0.3c-0.01-0.02-0.01-0.03,0.01-0.03
		c0.04-0.01,0.07-0.02,0.09-0.05c0.02-0.02,0.04-0.07,0.04-0.15c0.15-0.41,0.24-0.67,0.28-0.78c0.04-0.11,0.04-0.17,0.03-0.16
		c0.06-0.2,0.19-0.32,0.39-0.36c0.2-0.04,0.42-0.04,0.66,0c0.24,0.04,0.44,0.11,0.61,0.2c0.17,0.09,0.27,0.2,0.29,0.33
		c0.02,0.09,0,0.29-0.06,0.58l-1.43,8.48c-0.11,0.61,0.05,0.87,0.49,0.79c0.29-0.06,0.63-0.29,1.02-0.69
		c0.39-0.41,0.73-0.88,1.03-1.41c0.03-0.04,0.06-0.08,0.09-0.1c0.03-0.02,0.07-0.04,0.1-0.05c0.07-0.01,0.13,0,0.18,0.05
		s0.08,0.13,0.1,0.24c0.04,0.18-0.05,0.5-0.26,0.96c-0.21,0.46-0.46,0.89-0.77,1.29c-0.47,0.62-0.96,1.13-1.48,1.51
		c-0.52,0.38-0.98,0.62-1.41,0.7c-0.22,0.04-0.45,0.02-0.7-0.07c-0.25-0.09-0.46-0.21-0.64-0.36c-0.18-0.15-0.29-0.33-0.33-0.54
		c-0.03-0.17-0.02-0.39,0.04-0.66c-0.02,0.08-0.02,0.03,0.01-0.15c0.03-0.18,0.09-0.43,0.17-0.76c0.08-0.33,0.16-0.67,0.25-1.03
		c0.08-0.36,0.16-0.68,0.22-0.95c0.06-0.18,0.07-0.31,0.03-0.39c-0.04-0.08-0.1-0.05-0.17,0.08c-0.84,1.38-1.58,2.5-2.23,3.38
		c-0.65,0.88-1.25,1.53-1.79,1.95C214.78,34.55,214.23,34.82,213.68,34.93z M215.3,32.39c0.37-0.07,0.87-0.5,1.49-1.28
		s1.3-1.81,2.01-3.06c0.51-0.9,0.9-1.7,1.15-2.4c0.25-0.7,0.35-1.21,0.29-1.52c-0.03-0.15-0.2-0.31-0.52-0.5
		c-0.17-0.08-0.33-0.14-0.49-0.18c-0.16-0.04-0.29-0.05-0.38-0.03c-0.33,0.06-0.73,0.31-1.21,0.74c-0.48,0.43-0.9,0.91-1.28,1.44
		c-0.43,0.62-0.83,1.3-1.17,2.06c-0.35,0.76-0.61,1.49-0.78,2.2c-0.17,0.71-0.21,1.28-0.13,1.72c0.06,0.29,0.17,0.51,0.35,0.66
		C214.83,32.39,215.05,32.44,215.3,32.39z"/>
	<path class="st0" d="M228.35,32.05c-0.13,0.03-0.28,0.02-0.45-0.02c-0.17-0.04-0.33-0.12-0.48-0.23c-0.15-0.11-0.24-0.24-0.26-0.39
		c-0.04-0.2-0.04-0.44,0-0.73s0.09-0.64,0.15-1.07l1.23-7.31c0.05-0.24,0.04-0.44-0.02-0.61c-0.06-0.17-0.19-0.23-0.37-0.2
		c-0.29,0.06-0.55,0.16-0.77,0.3c-0.22,0.14-0.41,0.29-0.56,0.46c-0.09,0.1-0.2,0.14-0.32,0.12c-0.12-0.01-0.19-0.09-0.22-0.24
		c-0.06-0.22-0.02-0.47,0.14-0.77c0.16-0.3,0.38-0.58,0.67-0.85c0.23-0.26,0.52-0.48,0.86-0.68c0.34-0.19,0.7-0.33,1.06-0.4
		c0.51-0.1,0.88-0.04,1.1,0.19c0.22,0.23,0.34,0.58,0.37,1.04c0.03,0.46-0.02,1-0.14,1.61l-0.6,3.12c-0.05,0.14-0.01,0.22,0.12,0.23
		c0.13,0.01,0.21-0.04,0.24-0.16c0.45-1.37,0.93-2.57,1.45-3.62c0.52-1.05,1.04-1.89,1.57-2.53c0.53-0.64,1.05-1.01,1.56-1.12
		c0.51-0.1,0.91-0.03,1.2,0.21c0.29,0.25,0.48,0.58,0.56,1c0.08,0.38,0.08,0.78,0,1.2c-0.08,0.42-0.21,0.77-0.41,1.07
		c-0.2,0.3-0.42,0.47-0.68,0.52c-0.18,0.04-0.33-0.03-0.45-0.19c-0.12-0.17-0.23-0.41-0.33-0.73c-0.07-0.27-0.17-0.49-0.29-0.67
		c-0.12-0.18-0.28-0.24-0.48-0.2c-0.24,0.05-0.48,0.25-0.73,0.62c-0.25,0.36-0.53,0.91-0.84,1.64c-0.13,0.29-0.3,0.71-0.52,1.23
		c-0.22,0.53-0.44,1.11-0.67,1.75c-0.23,0.64-0.47,1.28-0.7,1.91c-0.23,0.64-0.43,1.21-0.59,1.72c-0.28,0.88-0.52,1.54-0.71,2
		C228.83,31.74,228.6,32,228.35,32.05z"/>
	<path class="st0" d="M239.46,29.71c-0.35,0.07-0.67,0.01-0.98-0.19c-0.31-0.2-0.49-0.42-0.54-0.68c-0.01-0.07-0.02-0.15-0.02-0.24
		c0-0.09,0.01-0.18,0.03-0.28c0.4-1.53,0.71-2.98,0.95-4.35s0.45-2.61,0.65-3.72c0.04-0.2-0.03-0.28-0.19-0.25
		c-0.09,0.02-0.25,0.1-0.48,0.24s-0.46,0.32-0.69,0.53c-0.23,0.21-0.44,0.41-0.61,0.59c-0.13,0.12-0.25,0.17-0.36,0.14
		c-0.11-0.02-0.18-0.09-0.2-0.2c-0.02-0.11,0.03-0.28,0.17-0.52c0.13-0.24,0.33-0.51,0.58-0.83c0.25-0.32,0.54-0.65,0.87-1
		c0.33-0.35,0.67-0.69,1.04-1.02c0.36-0.33,0.73-0.62,1.1-0.86c0.18-0.13,0.39-0.16,0.62-0.08c0.23,0.08,0.43,0.2,0.59,0.37
		c0.16,0.17,0.22,0.32,0.19,0.46l-1.66,8.48c-0.03,0.12-0.05,0.24-0.05,0.37c0,0.12,0,0.23,0.02,0.32c0.02,0.11,0.08,0.17,0.17,0.19
		s0.17,0.02,0.24,0.01c0.22-0.04,0.48-0.21,0.77-0.51c0.29-0.3,0.59-0.65,0.9-1.07c0.31-0.41,0.58-0.81,0.83-1.18
		c0.03-0.06,0.06-0.1,0.09-0.1c0.05-0.01,0.11,0,0.18,0.04c0.06,0.03,0.1,0.09,0.12,0.16c0.06,0.29-0.05,0.71-0.32,1.25
		c-0.27,0.54-0.63,1.1-1.09,1.66c-0.46,0.57-0.94,1.07-1.45,1.49S239.92,29.62,239.46,29.71z M241.9,14.24
		c-0.33,0.07-0.62,0-0.88-0.21c-0.26-0.2-0.42-0.47-0.49-0.8c-0.1-0.49-0.02-0.97,0.25-1.44c0.27-0.46,0.66-0.75,1.17-0.85
		c0.35-0.07,0.65,0.02,0.9,0.27c0.25,0.25,0.41,0.55,0.48,0.88c0.09,0.46,0,0.9-0.27,1.34C242.78,13.88,242.39,14.14,241.9,14.24z"
		/>
	<path class="st0" d="M248.87,27.84c-0.53,0.1-1.06,0.04-1.58-0.18s-0.98-0.56-1.36-1.03c-0.38-0.47-0.63-1.01-0.74-1.61
		c-0.16-0.86-0.16-1.82,0.01-2.88c0.16-1.06,0.49-2.08,0.96-3.08s1.1-1.86,1.86-2.58c0.76-0.72,1.65-1.18,2.68-1.37
		c1.03-0.19,1.9-0.02,2.6,0.53c0.71,0.54,1.16,1.33,1.35,2.35c0.15,0.83,0.15,1.76,0,2.81c-0.16,1.05-0.48,2.06-0.96,3.05
		c-0.48,0.99-1.12,1.85-1.91,2.58C250.98,27.16,250.01,27.63,248.87,27.84z M249.17,26.84c0.4-0.08,0.78-0.35,1.13-0.82
		c0.35-0.47,0.66-1.07,0.94-1.78c0.28-0.72,0.49-1.49,0.65-2.31c0.16-0.83,0.26-1.64,0.3-2.45c0.04-0.8,0-1.52-0.11-2.14
		c-0.08-0.46-0.23-0.81-0.44-1.04c-0.21-0.24-0.52-0.32-0.94-0.24c-0.38,0.07-0.75,0.33-1.11,0.78c-0.35,0.45-0.67,1.01-0.95,1.7
		c-0.28,0.69-0.51,1.43-0.68,2.23s-0.28,1.61-0.32,2.44c-0.04,0.82,0.01,1.59,0.14,2.31c0.1,0.53,0.27,0.9,0.51,1.12
		C248.53,26.83,248.82,26.91,249.17,26.84z"/>
</g>
</svg>
