<?xml version="1.0" encoding="utf-8"?>
<!-- Generator: Adobe Illustrator 27.5.0, SVG Export Plug-In . SVG Version: 6.00 Build 0)  -->
<svg version="1.1" id="Layer_1" xmlns="http://www.w3.org/2000/svg" xmlns:xlink="http://www.w3.org/1999/xlink" x="0px" y="0px"
	 viewBox="0 0 343 55.2" style="enable-background:new 0 0 343 55.2;" xml:space="preserve">
<style type="text/css">
	.st0{fill:#D8D9CF;stroke:#000000;stroke-width:2;stroke-miterlimit:10;}
</style>
<g>
	<g>
		<path class="st0" d="M341.9,38c0.1,0.3,0.1,0.7,0.1,1.2c0,7.2-8.6,8.4-14,8.5c-5.4,0-12.5-0.4-16.6,4c-1,1-1.9,1.9-2.4,3.3
			c0.7-2.1,0.9-4,2.1-6.1c1.1-1.9,2.3-3.7,3.6-5.5c-0.3,0.4-3.3-0.7-3.8-0.7c-1.8-0.2-4.8-1.1-6.4-0.1l0,0c2.1-1.2,3.1-3.2,4.6-4.9
			l2-1.3l1.8-1c6.5-3,13.7-4.7,20.5-2.8c0.7,0.2,1.5,0.4,2.2,0.6c0.6,0.2,1.2,0.4,1.9,0.7C339.4,34.7,341.4,36,341.9,38z"/>
		<path class="st0" d="M341.7,35.1c0.1,0.9,0.2,1.9,0.2,2.8l-0.1,0c-0.5-1.9-2.4-3.3-4.5-4.2c-0.6-0.3-1.3-0.5-1.9-0.7
			c-0.7-0.2-1.5-0.4-2.2-0.6c-6.8-1.8-14-0.2-20.5,2.8l-1.8,1l-2,1.3l-1.3,0.8c-4.7,2.9-9.3,6.1-14.4,8.2c-2.4,1-5.1,1.7-7.8,1.5
			c-1.7-0.2-3.6-0.2-4.9-1.6c-0.8-0.8-1-2-0.9-3c0.1-0.6,0.3-1.1,0.7-1.6c2.3-3.2,7.5-2.1,10.8-1.9c0.6,0,1.3,0,1.9,0
			c1.9-0.1,3.6-0.6,4.8-2c0.2-0.4,0.4-0.7,0.5-1h0c0.3-0.7,0.5-1.5,0.6-2.2c0.1-0.8,0.2-1.6,0.2-2.4l0.1-2.1c0-0.7,0.1-1.4,0.1-2.1
			c0-2.1,0.2-4.2,0.3-6.3l0.1-2.1c0-1.1-0.1-2.2,0-3.3c0.9-0.4,1.7-0.7,2.6-1.2l2.4-1.2c8.1-4,17.7-5.8,26.6-4
			c0.6,0.1,1.3,0.3,1.9,0.4c1.8,0.5,3.6,1.2,5.2,2.1c0.1,0.9,0.1,1.7,0.2,2.6c0.6,5.7,2,11.6,2.7,17.3L341.7,35.1z"/>
		<path class="st0" d="M287.1,30.8c2.7,0,12.7,1.1,11.2,6.1c-0.1,0.3-0.2,0.7-0.5,1c-1.2,1.4-2.9,1.9-4.8,2c-0.6,0-1.3,0-1.9,0
			c-3.3-0.2-8.5-1.3-10.8,1.9c-0.4,0.5-0.6,1-0.7,1.6h0c0.4-4.6,3.3-8.2,4.2-12.5C285,30.8,286,30.8,287.1,30.8z"/>
		<path class="st0" d="M59.1,30.7c0.9,4.3,3.8,7.9,4.2,12.5l0,0c-0.1-0.6-0.3-1.1-0.7-1.6c-2.3-3.2-7.5-2.1-10.8-1.9
			c-0.6,0-1.3,0.1-1.9,0c-1.9-0.1-3.6-0.6-4.8-2c-0.2-0.4-0.3-0.7-0.4-1c-1.4-4.9,8.5-6.1,11.2-6.1C57,30.5,58.1,30.6,59.1,30.7z"/>
		<path class="st0" d="M43.9,32c-0.1-0.7-0.1-1.4-0.1-2.1c0-0.7-0.1-1.4-0.1-2.1c-0.1-2.1-0.2-4.2-0.3-6.3l-0.1-2.1
			c0-1.1,0.1-2.2,0-3.3v0c-0.1-0.2-0.3-3.9-0.3-4.3c-0.2-1.4-0.6-3.4,0.1-4.7c2.6-4.6,8.5-5.7,13.5-6C57.3,1.1,58,1,58.7,1
			c1.7,0,3.3,0.1,5.1,0.2C67.5,1.4,71.3,1.7,75,2c2,0.2,3.9,0.4,5.8,0.6L86,3.3c3.6,0.4,7.1,1,10.5,1.6c1.7,0.3,3.4,0.6,5.1,1
			l3.7,0.8l4.7,1.1l4.6,1l9.5,1.7c13.3,2.3,27.3,4.2,41.5,4.5c1.8,0,3.6,0,5.3,0c1.4,0,2.7,0,4.1-0.1v0c14,0.1,28.6-0.5,41.5-3.1
			c1.9-0.3,3.7-0.7,5.6-1.1c1.7-0.3,3.4-0.7,5-1l4.9-1.1l3.5-0.7c5.8-1.2,11.7-2.4,17.8-3.4l5.4-0.9c1.7-0.2,3.5-0.5,5.2-0.7
			c1.9-0.2,3.8-0.4,5.8-0.6c1.9-0.2,3.7-0.3,5.6-0.5l2.8-0.2l1.3-0.2c1.6-0.2,3.3-0.3,5-0.2l2.1,0.1c5.1,0.3,10.9,1.4,13.5,6
			c0.7,1.3,0.2,3.3,0.1,4.7c0,0.4-0.2,3.9-0.3,4.3v0c0,1.1,0,2.2,0,3.3l-0.1,2.1c-0.1,2.1-0.3,4.2-0.3,6.3c-0.1,0.7-0.1,1.4-0.1,2.1
			l-0.1,2.1c-0.1,0.8-0.1,1.6-0.2,2.4c-0.1,0.7-0.3,1.5-0.6,2.2h0c1.4-4.9-8.5-6.1-11.2-6.1c-1.1,0-2.1,0-3.1,0.1
			c-1.2,0.1-2.5,0.2-3.7,0.4l-1.8,0.3c-0.1,0.1-1.1,0.1-1.7,0.2l-2.1,0.2c-5.5,0.5-11,1.2-16.3,2l-4.2,0.7c-5.4,1-10.8,2.1-16.2,3.2
			l-8.1,1.7c-14,3.1-28.6,5.5-44.2,6.2c-2.1,0.1-4.3,0.2-6.4,0.2c-2.1,0-4.2,0-6.3,0c-7.4,0-15.1-0.4-22.4-1.2l0,0
			c-11.4-1.2-21.8-3-32.4-5.3l-5.2-1c-8.6-1.7-17.3-3.4-26.5-4.9c-1.6-0.3-3.3-0.5-4.9-0.7c-4.6-0.6-9.2-1.1-13.9-1.5L64,31.2
			c-0.4,0-0.4,0-0.6-0.1L63,31.1L62.2,31c-1-0.1-2.1-0.2-3.1-0.3c-1-0.1-2.1-0.1-3.1-0.1c-2.7,0-12.7,1.2-11.2,6.1l0,0
			c-0.3-0.7-0.5-1.5-0.6-2.2C44,33.6,43.9,32.8,43.9,32z"/>
		<path class="st0" d="M34.1,37.3c1.5,1.7,2.4,3.7,4.6,4.9l0,0.1c-1.6-0.9-4.7-0.1-6.4,0.1c-0.5,0.1-3.5,1.1-3.8,0.7
			c1.3,1.8,2.5,3.6,3.6,5.5c1.2,2,1.4,3.9,2.1,6.1c-0.5-1.4-1.4-2.3-2.4-3.3c-4.1-4.4-11.2-4-16.6-4c-5.4,0-14-1.3-14-8.5
			c0-0.4,0-0.8,0.1-1.2c0.5-2,2.4-3.3,4.5-4.2c0.6-0.3,1.3-0.5,1.9-0.7c0.7-0.2,1.5-0.5,2.2-0.6c6.8-1.9,14-0.2,20.5,2.8l1.8,1
			L34.1,37.3z"/>
		<path class="st0" d="M43.7,29.9c0,0.7,0.1,1.4,0.1,2.1c0,0.8,0.1,1.6,0.2,2.4c0.2,0.7,0.4,1.5,0.6,2.2l0,0c0.1,0.3,0.2,0.7,0.4,1
			c1.2,1.4,2.9,1.9,4.8,2c0.6,0,1.2,0,1.9,0c3.3-0.2,8.5-1.3,10.8,1.9c0.3,0.5,0.6,1,0.7,1.6c0.2,1-0.1,2.2-0.8,3
			c-1.3,1.4-3.2,1.4-4.9,1.6c-2.6,0.2-5.3-0.4-7.8-1.4c-5.1-2.2-9.7-5.3-14.4-8.2l-1.3-0.8L32,36l-1.8-1c-6.5-3-13.7-4.7-20.5-2.8
			c-0.7,0.2-1.5,0.4-2.2,0.6c-0.6,0.2-1.2,0.4-1.9,0.7c-2.1,0.9-4,2.3-4.5,4.2l-0.1,0c0.1-0.9,0.1-1.9,0.2-2.8L1.6,32
			c0.8-5.7,2.1-11.6,2.7-17.3l0.2-2.6c1.6-1,3.4-1.6,5.2-2.1c0.6-0.2,1.2-0.3,1.8-0.4c8.9-1.8,18.5,0.1,26.6,4
			c0.8,0.4,1.6,0.8,2.4,1.2c0.9,0.5,1.7,0.9,2.6,1.2v0c0,1.1,0,2.2,0,3.3l0.1,2.1c0.1,2.1,0.3,4.2,0.3,6.3
			C43.7,28.5,43.7,29.2,43.7,29.9z"/>
	</g>
	<g>
		<g>
			<path d="M89.5,27.8c-0.2-0.3-0.3-0.7-0.2-1c0-0.2,0.1-0.4,0.2-0.5c0.1-0.1,0.2-0.2,0.3-0.2c0.1,0,0.3,0.1,0.4,0.2
				c0.1,0.1,0.2,0.2,0.4,0.3c0.2,0.2,0.4,0.4,0.7,0.6c0.3,0.2,0.7,0.4,1.3,0.5c0.8,0.1,1.7,0.1,2.5-0.1c0.9-0.2,1.7-0.6,2.4-1.3
				c0.7-0.7,1.1-1.5,1.3-2.6c0.2-0.9,0-1.7-0.5-2.4c-0.5-0.7-1.4-1.6-2.7-2.5c-0.4-0.3-0.6-0.5-0.8-0.7c-0.1-0.2-0.2-0.4-0.1-0.5
				c0-0.1,0.1-0.2,0.2-0.4c0.3-0.5,1.1-1.6,2.6-3.2l0.7-0.8c0.3-0.3,0.5-0.5,0.8-0.6c0.2-0.1,0.5-0.2,0.8-0.2c0.8-0.1,1.8-0.1,3-0.1
				c1.2,0,2.2,0.1,3.2,0.1c0.2,0,0.3,0.2,0.3,0.4c0,0.2-0.2,0.4-0.5,0.8c-0.3,0.4-0.6,0.7-1,0.9c-0.4,0.3-0.7,0.4-1,0.3l-2-0.2
				c-1.6-0.2-2.6-0.3-3.1-0.3c-0.2,0-0.4,0.2-0.9,0.6c-0.4,0.4-0.7,0.7-0.9,0.9c0,0-0.1,0.1-0.1,0.2c0,0.1,0,0.2,0.2,0.3
				c1.8,1.1,3.1,2.2,4,3.2s1.2,2.2,0.9,3.4c-0.2,1.3-1,2.5-2.2,3.4c-1.2,1-2.6,1.6-4.3,2c-1.7,0.4-3.3,0.4-4.8,0.2
				C90.1,28.3,89.7,28.1,89.5,27.8z"/>
			<path d="M103.2,30.2c-0.2-0.3-0.3-0.7-0.2-1c0-0.2,0.1-0.4,0.2-0.5s0.2-0.2,0.3-0.2c0.1,0,0.3,0.1,0.4,0.2
				c0.1,0.1,0.2,0.2,0.4,0.3c0.2,0.2,0.4,0.4,0.7,0.6c0.3,0.2,0.7,0.4,1.3,0.5c0.8,0.2,1.7,0.1,2.5-0.1c0.9-0.2,1.7-0.6,2.4-1.3
				c0.7-0.6,1.1-1.5,1.4-2.6c0.2-0.9,0-1.7-0.5-2.4c-0.5-0.7-1.4-1.6-2.7-2.6c-0.4-0.3-0.6-0.5-0.8-0.7c-0.1-0.2-0.2-0.4-0.1-0.5
				c0-0.1,0.1-0.2,0.2-0.4c0.3-0.5,1.2-1.5,2.6-3.1l0.8-0.8c0.3-0.3,0.5-0.5,0.8-0.6c0.3-0.1,0.5-0.2,0.8-0.2c0.8-0.1,1.8-0.1,3,0
				c1.2,0,2.2,0.1,3.1,0.2c0.2,0,0.3,0.2,0.3,0.4c0,0.2-0.2,0.4-0.5,0.8c-0.3,0.4-0.6,0.7-1,0.9c-0.4,0.3-0.7,0.4-1,0.3l-2-0.2
				c-1.6-0.2-2.6-0.4-3.1-0.4c-0.2,0-0.4,0.2-0.9,0.6c-0.4,0.4-0.7,0.7-0.9,0.9c0,0-0.1,0.1-0.1,0.2c0,0.1,0,0.2,0.2,0.3
				c1.8,1.2,3.1,2.3,3.9,3.3s1.1,2.2,0.9,3.5c-0.3,1.3-1,2.5-2.2,3.4c-1.2,0.9-2.6,1.6-4.3,1.9s-3.3,0.4-4.8,0.1
				C103.7,30.8,103.4,30.6,103.2,30.2z"/>
			<path d="M119.2,31.7c-0.4-1-0.5-2.2-0.2-3.6c0.2-1.2,0.7-2.5,1.4-3.8c0.8-1.4,1.7-2.8,2.9-4s2.4-2.1,3.7-2.8
				c1.3-0.6,2.6-0.8,3.9-0.6c1.2,0.2,2,0.9,2.4,1.8c0.4,1,0.5,2.2,0.2,3.6c-0.2,1.2-0.7,2.5-1.4,3.8c-0.8,1.5-1.8,2.8-2.9,4
				c-1.1,1.2-2.4,2.1-3.7,2.8c-1.3,0.6-2.6,0.8-3.9,0.6C120.4,33.3,119.6,32.7,119.2,31.7z M124.2,32.1c0.8-0.6,1.6-1.4,2.5-2.5
				c0.8-1.1,1.6-2.2,2.3-3.5c1.1-2,1.7-3.8,2-5.3c0.4-1.8,0.1-2.9-0.9-3.1c-0.9-0.2-2,0.4-3.2,1.6c-1.2,1.3-2.4,2.9-3.5,5
				c-1.2,2.2-1.9,4.1-2.2,5.6c-0.2,0.8-0.2,1.4,0,1.9c0.1,0.5,0.4,0.8,0.9,0.9C122.7,32.9,123.4,32.7,124.2,32.1z"/>
			<path d="M136.4,36.2c-0.3-0.3-0.4-0.6-0.4-0.9c0.1-0.9,0.7-2,1.8-3.3c1.1-1.2,2.6-2.6,4.5-4c2.2-1.6,3.6-2.3,4.2-2.2
				c0.3,0,0.7,0.3,1,0.7l0.3,0.4c0.1,0,0.1,0,0.2-0.2c0.4-0.5,0.6-0.8,0.6-0.8c0.1-0.2,0.3-0.2,0.5-0.2c0.3,0,0.6,0.2,0.9,0.4
				s0.4,0.4,0.4,0.6c0,0.1-0.1,0.2-0.2,0.5l-4,7.6c-0.1,0.2-0.1,0.3-0.1,0.4c0,0.3,0.1,0.4,0.4,0.5c0.3,0,0.7-0.1,1.2-0.3
				c0.5-0.3,1-0.6,1.4-1c0.1-0.1,0.2-0.1,0.2-0.1c0.1,0,0.2,0.1,0.2,0.4c0,0.2-0.2,0.5-0.5,0.8c-0.3,0.4-0.7,0.7-1.1,1
				c-0.6,0.4-1.3,0.8-1.9,1c-0.6,0.2-1.1,0.3-1.6,0.2c-0.4,0-0.7-0.2-0.9-0.5c-0.3-0.3-0.4-0.6-0.3-0.9c0-0.2,0.1-0.4,0.2-0.6
				c-0.1,0.1,0-0.1,0.4-0.8c0.4-0.6,0.7-1.2,1.1-1.8c0.1-0.1,0.1-0.3,0.1-0.4c0-0.1-0.1-0.1-0.2,0c-1.8,1.6-3.3,2.7-4.4,3.3
				s-2.1,0.9-2.9,0.8C137,36.7,136.6,36.6,136.4,36.2z M141.5,34.1c0.9-0.5,1.8-1.3,2.8-2.3c0.7-0.7,1.4-1.3,1.8-1.9s0.7-1,0.8-1.4
				c0-0.1-0.1-0.4-0.3-0.6c-0.3-0.3-0.6-0.4-0.8-0.5c-0.3,0-0.8,0.1-1.4,0.3s-1.2,0.6-1.7,1c-0.9,0.7-1.8,1.6-2.5,2.6
				c-0.8,1-1.2,1.8-1.3,2.5c0,0.3,0,0.5,0.1,0.7c0.1,0.2,0.3,0.3,0.5,0.3C140,34.9,140.6,34.7,141.5,34.1z"/>
			<path d="M152.1,38.1c-0.2-0.3-0.3-0.6-0.3-0.9c0-0.1,0-0.3,0.1-0.3l3.6-7.4c0.2-0.3,0.3-0.6,0.3-0.7c0-0.2-0.1-0.3-0.3-0.3
				c-0.4,0-0.7,0-1.1,0.2s-0.7,0.4-1.1,0.9c-0.1,0.1-0.1,0.1-0.2,0.1c-0.1,0-0.2-0.1-0.2-0.2c0-0.2,0.1-0.4,0.3-0.7s0.4-0.6,0.6-0.8
				c0.4-0.4,0.9-0.7,1.4-0.9c0.6-0.2,1.2-0.3,1.9-0.3c0.4,0,0.6,0.2,0.8,0.4c0.2,0.2,0.3,0.5,0.3,0.8c0,0.1-0.1,0.3-0.1,0.5l-2,4.3
				c0,0,0,0.1,0,0.1c0,0.1,0,0.1,0.1,0.1c0.1,0,0.2,0,0.2-0.1c1.2-1.8,2.5-3.3,3.6-4.3c1.2-1,2.2-1.5,3.2-1.4c0.5,0,1,0.3,1.2,0.7
				c0.3,0.4,0.4,0.9,0.4,1.5c0,0.4-0.2,0.9-0.4,1.3l-2.8,5.5c-0.1,0.3-0.2,0.5-0.2,0.6c0,0.2,0.1,0.3,0.3,0.3c0.3,0,0.8-0.2,1.5-0.6
				s1.2-0.7,1.4-1c0.1-0.1,0.2-0.2,0.3-0.1s0.1,0,0.2,0.1s0.1,0.1,0.1,0.2c0,0.2-0.1,0.4-0.2,0.6c-0.9,0.9-1.8,1.6-2.8,2.1
				c-1,0.5-1.9,0.8-2.8,0.7c-0.3,0-0.5-0.1-0.7-0.4c-0.2-0.2-0.3-0.5-0.3-0.7c0-0.1,0-0.2,0.1-0.3l1.2-2.1c1.3-2.5,2.2-4.3,2.7-5.3
				c0.2-0.4,0.3-0.8,0.3-1.1c0-0.4-0.1-0.6-0.4-0.6c-0.6,0-1.6,0.7-2.9,2.3c-0.4,0.5-1.2,1.4-2.2,2.8s-2,2.7-2.8,4
				c-0.3,0.4-0.5,0.7-0.7,0.8c-0.2,0.2-0.4,0.3-0.6,0.3C152.5,38.5,152.3,38.4,152.1,38.1z"/>
			<path d="M167.7,39c-0.3-0.2-0.4-0.5-0.4-0.8c0-0.2,0-0.3,0.1-0.5c0.6-1.2,1.1-2.4,1.6-3.7c0.5-1.2,0.8-2,0.9-2.2
				c0.2-0.7,0.5-1.3,0.7-1.7l0-0.1c0-0.1-0.1-0.2-0.2-0.2c-0.2,0-0.5,0.1-0.9,0.3c-0.4,0.2-0.8,0.4-1.1,0.7
				c-0.1,0.1-0.2,0.1-0.3,0.1c-0.2,0-0.3-0.1-0.3-0.2c0-0.2,0.2-0.5,0.7-1s1.1-0.9,1.8-1.3c0.7-0.5,1.4-0.8,2.1-1.1
				c0.1,0,0.2-0.1,0.3-0.1c0.3,0,0.5,0.1,0.8,0.4c0.2,0.3,0.3,0.5,0.2,0.7l-3.4,7.9c-0.1,0.2-0.2,0.5-0.2,0.7c0,0.2,0.1,0.3,0.4,0.3
				c0.5,0,1.5-0.7,3-2.2c0.1-0.1,0.1-0.1,0.1-0.1c0.1,0,0.1,0,0.2,0.1c0,0,0.1,0.1,0.1,0.2c0,0.4-0.3,1-1,1.6s-1.4,1.3-2.2,1.8
				c-0.8,0.5-1.5,0.8-2.1,0.8C168.3,39.4,168,39.3,167.7,39z M173.4,24.4c-0.2-0.3-0.3-0.5-0.3-0.9c0-0.5,0.2-1,0.5-1.4
				c0.4-0.4,0.8-0.6,1.3-0.6c0.3,0,0.6,0.2,0.8,0.4c0.2,0.3,0.3,0.6,0.3,1c0,0.5-0.2,0.9-0.6,1.3c-0.4,0.4-0.8,0.5-1.3,0.5
				C173.9,24.8,173.7,24.6,173.4,24.4z"/>
			<path d="M177.9,38.7c-0.4-0.5-0.6-1-0.7-1.7c0-0.4,0-0.8,0.2-1.2l1.6-4.9c0.1-0.3,0.1-0.6,0.1-0.8c0-0.2-0.1-0.3-0.3-0.3
				c-0.1,0-0.4,0.1-0.7,0.4c-0.3,0.3-0.6,0.5-0.8,0.8c-0.2,0.2-0.3,0.3-0.4,0.3c-0.2,0-0.3-0.1-0.3-0.2c0-0.2,0.1-0.5,0.4-0.9
				c0.6-0.9,1.3-1.6,2.1-2.2c0.8-0.6,1.4-0.9,1.9-1c0.3,0,0.5,0.1,0.7,0.4c0.2,0.3,0.3,0.5,0.2,0.8l-2.1,7.3c-0.1,0.4-0.2,0.7-0.2,1
				c0,0.7,0.4,1,1.1,1c0.7,0,1.5-0.4,2.3-1.1s1.4-1.5,1.9-2.5s0.7-2,0.7-2.9c0-0.7-0.3-1.4-0.8-1.8c-0.3-0.3-0.4-0.6-0.5-1
				c0-0.2,0.2-0.5,0.7-0.9c0.5-0.3,0.9-0.5,1.3-0.5c0.2,0,0.5,0.2,0.7,0.5c0.2,0.4,0.3,0.9,0.3,1.5c0,1.2-0.2,2.4-0.6,3.7
				c-0.5,1.2-1.2,2.4-2.1,3.5c-0.8,1-1.7,1.8-2.6,2.4s-1.7,0.9-2.5,0.9C178.8,39.4,178.3,39.1,177.9,38.7z"/>
			<path d="M190.4,38.4c-0.5-0.3-0.9-0.6-1.2-1.1c-0.3-0.4-0.5-0.9-0.6-1.4c-0.1-1.3,0.1-2.8,0.7-4.2c0.6-1.5,1.4-2.7,2.4-3.8
				c1.1-1,2.2-1.6,3.5-1.7c0.8-0.1,1.4,0,1.8,0.3c0.4,0.3,0.7,0.7,0.7,1.2c0.1,1.1-0.4,2-1.6,2.7c-1.1,0.7-2.7,1.3-4.5,1.9
				c-0.1,0-0.2,0.1-0.2,0.1s-0.1,0.1-0.1,0.2c-0.2,0.9-0.3,1.6-0.3,2.1c0.1,0.7,0.2,1.2,0.6,1.6c0.3,0.4,0.8,0.5,1.3,0.5
				c0.6,0,1-0.2,1.5-0.5s0.8-0.7,1.2-1.2c0.2-0.2,0.3-0.3,0.4-0.3c0.2,0,0.3,0.1,0.3,0.3c0,0.1,0,0.2,0,0.3
				c-1.1,2.2-2.6,3.4-4.6,3.6C191.3,38.8,190.8,38.6,190.4,38.4z M193.4,30.8c0.6-0.3,1.2-0.7,1.7-1.2c0.5-0.5,0.7-1.1,0.7-1.8
				c0-0.2-0.1-0.4-0.2-0.6c-0.1-0.2-0.3-0.2-0.6-0.2c-0.4,0-0.9,0.3-1.5,0.8c-0.5,0.5-1,1.1-1.3,1.8c-0.4,0.7-0.5,1.2-0.6,1.6
				c0,0.1,0.1,0.2,0.2,0.2C192.2,31.3,192.8,31.1,193.4,30.8z"/>
			<path d="M200.2,37.7c-0.3-0.1-0.4-0.3-0.4-0.6c0-0.2,0-0.4,0-0.7s0.1-0.7,0.2-1.1l1.8-7.2c0-0.2,0.1-0.4,0.1-0.5
				c0-0.3-0.2-0.4-0.4-0.3c-0.5,0.1-1,0.3-1.4,0.7c-0.1,0.1-0.1,0.1-0.2,0.1c-0.2,0-0.3-0.1-0.3-0.3c0-0.2,0-0.5,0.2-0.7
				s0.4-0.5,0.7-0.8c0.6-0.5,1.3-0.8,2-0.9c0.8-0.1,1.3,0.2,1.4,1c0.1,0.5,0,1.1-0.3,2l-0.8,3.1l0,0.1c0,0.1,0.1,0.2,0.2,0.1
				c0.1,0,0.2-0.1,0.2-0.2c0.9-2,1.7-3.7,2.6-4.9c0.9-1.2,1.7-1.9,2.5-2c0.5-0.1,0.9,0,1.2,0.3c0.3,0.3,0.5,0.6,0.5,1
				c0.1,0.6,0,1.2-0.3,1.8c-0.3,0.6-0.6,0.9-1,0.9c-0.3,0-0.6-0.3-0.7-1c-0.1-0.7-0.4-1-0.7-0.9c-0.5,0.1-1,0.8-1.7,2.1
				c-0.3,0.6-0.8,1.5-1.4,2.9c-0.6,1.4-1.2,2.5-1.6,3.5c-0.4,1-0.7,1.7-0.9,2s-0.4,0.6-0.7,0.6C200.7,37.9,200.5,37.9,200.2,37.7z"
				/>
			<path d="M210.4,36.2c-0.4-0.2-0.6-0.5-0.7-1c-0.1-0.4,0-0.8,0.1-1.1c0.2-0.3,0.3-0.5,0.6-0.5c0.1,0,0.3,0,0.5,0.1
				c0.2,0.1,0.4,0.2,0.6,0.4c0.4,0.2,0.7,0.4,1,0.5c0.3,0.1,0.6,0.1,0.9,0.1c0.4-0.1,0.7-0.3,0.9-0.6c0.2-0.3,0.3-0.7,0.2-1.1
				c-0.1-0.7-0.6-1.5-1.4-2.5c-0.8-1-1.3-1.8-1.4-2.4c-0.1-0.6,0-1.3,0.4-2c0.4-0.7,0.9-1.3,1.4-1.8c0.6-0.5,1.1-0.8,1.4-0.9
				c0.3-0.1,0.6,0,1,0.1c0.3,0.1,0.6,0.2,0.9,0.4c0.2,0.2,0.4,0.3,0.4,0.5c0,0.2-0.1,0.5-0.3,0.9c-0.2,0.4-0.5,0.6-0.7,0.6
				c-0.1,0-0.2,0-0.4-0.1c-0.1-0.1-0.2-0.1-0.3-0.2c-0.1-0.1-0.1-0.1-0.2-0.2c-0.4-0.3-0.8-0.5-1.3-0.4c-0.3,0-0.5,0.2-0.7,0.5
				c-0.1,0.3-0.2,0.5-0.1,0.9c0.1,0.4,0.6,1.1,1.5,2.3c0.4,0.4,0.8,0.9,1,1.4c0.3,0.5,0.5,1,0.5,1.4c0.1,0.6-0.1,1.3-0.5,2
				c-0.4,0.7-1,1.3-1.8,1.8c-0.8,0.5-1.5,0.9-2.3,1C211.2,36.4,210.8,36.4,210.4,36.2z"/>
			<path d="M219.3,34.7c-0.4-0.2-0.6-0.5-0.7-0.7c-0.2-0.9,0-2.1,0.6-3.7c0.6-1.5,1.6-3.3,2.9-5.3c1.5-2.2,2.6-3.4,3.2-3.5
				c0.3-0.1,0.7,0,1.2,0.3l0.4,0.3c0.1,0,0.1-0.1,0.1-0.2c0.2-0.6,0.3-1,0.3-0.9c0-0.2,0.2-0.3,0.4-0.4c0.3-0.1,0.6,0,1,0.1
				c0.3,0.1,0.5,0.3,0.6,0.4c0,0.1,0,0.2,0,0.6l-1.2,8.5c0,0.2,0,0.3,0,0.5c0.1,0.3,0.2,0.4,0.5,0.3c0.3-0.1,0.6-0.3,1-0.7
				c0.4-0.4,0.7-0.9,1-1.4c0.1-0.1,0.1-0.2,0.2-0.2c0.1,0,0.2,0.1,0.3,0.3c0,0.2,0,0.5-0.2,1c-0.2,0.5-0.4,0.9-0.7,1.3
				c-0.5,0.6-0.9,1.1-1.4,1.5c-0.5,0.4-1,0.6-1.4,0.7c-0.3,0.1-0.7,0-1.1-0.2c-0.4-0.2-0.6-0.4-0.6-0.7c0-0.2,0-0.4,0-0.7
				c0,0.1,0-0.1,0.1-0.9c0.1-0.7,0.3-1.4,0.4-2c0-0.2,0-0.3,0-0.4c0-0.1-0.1-0.1-0.2,0.1c-1.2,2.1-2.2,3.6-3.1,4.6
				c-0.8,0.9-1.7,1.5-2.5,1.7C220,35,219.7,34.9,219.3,34.7z M223.4,31c0.6-0.8,1.3-1.8,1.9-3.1c0.5-0.9,0.8-1.7,1.1-2.4
				c0.2-0.7,0.3-1.2,0.3-1.5c0-0.1-0.2-0.3-0.5-0.5c-0.4-0.2-0.7-0.2-0.9-0.2c-0.3,0.1-0.7,0.3-1.2,0.8s-0.9,0.9-1.2,1.5
				c-0.6,1-1.1,2.1-1.5,3.3c-0.4,1.2-0.5,2.1-0.4,2.8c0.1,0.3,0.2,0.5,0.4,0.7c0.2,0.1,0.4,0.2,0.6,0.1
				C222.3,32.3,222.8,31.8,223.4,31z"/>
			<path d="M234,31.8c-0.3-0.1-0.4-0.3-0.5-0.5c0-0.2,0-0.4,0-0.7c0-0.3,0.1-0.7,0.1-1.1l1.2-7.3c0-0.2,0-0.4,0-0.5
				c-0.1-0.3-0.2-0.4-0.4-0.3c-0.5,0.1-0.9,0.4-1.3,0.8c-0.1,0.1-0.1,0.1-0.2,0.1c-0.2,0-0.3,0-0.3-0.2c-0.1-0.2,0-0.5,0.1-0.8
				c0.2-0.3,0.4-0.6,0.7-0.9c0.6-0.6,1.2-0.9,1.9-1.1c0.8-0.2,1.3,0.1,1.4,0.8c0.1,0.5,0.1,1.1-0.1,2l-0.6,3.1l0,0.1
				c0,0.1,0.1,0.2,0.2,0.1c0.1,0,0.1-0.1,0.2-0.2c0.7-2.1,1.4-3.8,2.2-5.1c0.8-1.3,1.6-2,2.3-2.2c0.5-0.1,0.9,0,1.2,0.2
				c0.3,0.2,0.5,0.6,0.6,1c0.1,0.6,0.1,1.2-0.1,1.8c-0.2,0.6-0.5,0.9-0.9,1c-0.3,0.1-0.6-0.2-0.8-0.9c-0.2-0.6-0.5-0.9-0.8-0.9
				c-0.5,0.1-1,0.9-1.6,2.3c-0.3,0.6-0.7,1.6-1.2,3c-0.5,1.4-1,2.6-1.3,3.6c-0.3,1-0.6,1.7-0.8,2.1c-0.2,0.4-0.4,0.6-0.6,0.7
				C234.5,32,234.3,32,234,31.8z"/>
			<path d="M244.9,29.4c-0.3-0.2-0.5-0.4-0.5-0.7c0-0.2,0-0.3,0-0.5c0.3-1.3,0.6-2.6,0.9-3.9c0.2-1.3,0.4-2.1,0.4-2.3
				c0.1-0.7,0.2-1.3,0.3-1.8l0-0.1c0-0.1-0.1-0.2-0.2-0.1c-0.2,0-0.4,0.2-0.8,0.5c-0.4,0.3-0.7,0.6-1,0.9c-0.1,0.1-0.2,0.1-0.3,0.1
				c-0.2,0-0.3,0-0.3-0.1c0-0.2,0.1-0.6,0.5-1.1c0.4-0.5,0.9-1.1,1.5-1.7c0.6-0.6,1.2-1.1,1.8-1.5c0.1-0.1,0.2-0.1,0.2-0.1
				c0.3-0.1,0.5,0,0.8,0.2c0.3,0.2,0.4,0.4,0.3,0.6l-1.7,8.5c-0.1,0.3-0.1,0.5,0,0.7c0,0.2,0.2,0.3,0.4,0.2c0.5-0.1,1.4-1,2.5-2.7
				c0-0.1,0.1-0.1,0.1-0.1c0.1,0,0.1,0,0.2,0c0.1,0,0.1,0.1,0.1,0.2c0.1,0.4-0.1,1-0.6,1.8c-0.5,0.8-1.1,1.5-1.8,2.2
				s-1.4,1.1-1.9,1.2C245.5,29.7,245.2,29.6,244.9,29.4z M247.6,14c-0.3-0.2-0.4-0.5-0.5-0.8c-0.1-0.5,0-1,0.3-1.4
				c0.3-0.5,0.7-0.7,1.2-0.8c0.3-0.1,0.6,0,0.9,0.3c0.3,0.2,0.4,0.5,0.5,0.9c0.1,0.5,0,0.9-0.3,1.4s-0.7,0.7-1.1,0.8
				C248.1,14.2,247.8,14.2,247.6,14z"/>
			<path d="M253.7,27.6c-0.5-0.2-1-0.6-1.3-1c-0.4-0.5-0.6-1-0.7-1.6c-0.2-1.2-0.1-2.5,0.3-4c0.4-1.5,1.1-2.8,2-3.9
				c0.9-1.1,2-1.8,3.3-2c1-0.2,1.9,0,2.6,0.6c0.7,0.5,1.2,1.3,1.3,2.4c0.2,1.2,0.1,2.5-0.3,3.9c-0.4,1.4-1.1,2.7-2,3.8
				c-1,1.1-2.2,1.8-3.6,2C254.7,27.9,254.2,27.9,253.7,27.6z M257.3,25c0.5-1.1,0.9-2.4,1.2-3.9c0.2-1.5,0.3-2.7,0.1-3.8
				c-0.2-1-0.6-1.4-1.4-1.3c-0.6,0.1-1.2,0.7-1.8,1.8s-0.9,2.3-1.2,3.8c-0.3,1.5-0.3,2.8-0.1,3.9c0.2,1,0.6,1.5,1.4,1.4
				C256.2,26.7,256.8,26.1,257.3,25z"/>
		</g>
	</g>
</g>
</svg>
