<?xml version="1.0" encoding="utf-8"?>
<!-- Generator: Adobe Illustrator 27.5.0, SVG Export Plug-In . SVG Version: 6.00 Build 0)  -->
<svg version="1.1" id="Layer_1" xmlns="http://www.w3.org/2000/svg" xmlns:xlink="http://www.w3.org/1999/xlink" x="0px" y="0px"
	 viewBox="0 0 206.61 203.22" style="enable-background:new 0 0 206.61 203.22;" xml:space="preserve">
<style type="text/css">
	.st0{fill:#0000FF;}
</style>
<g>
	<g>
		<path class="st0" d="M174.53,109.01c9.45-1.49,18.93-2.88,28.35-4.52c12.56-5.91-15.19-5.41-20.51-6.18
			c-31.14-1.73-9.43-5.56,5.05-16.94c-0.25-8.54-22.1,2.31-29.22-1.47c4.03-6.78,46.24-22.8,25.95-24.52
			c-9.87,3.62-19.68,7.39-29.59,10.89c-18.3-2.84,26.39-26.92,15.55-30.22c-42.77,24.69-29.88,20.01-20.85-17.59
			c-7.96,2.32-17.2,31.64-24.91,24.17c-0.77-5.04,3.77-26.43-4.58-19.61c-3.74,3.77-7.11,23.06-12.58,16.8
			c-6.33-11.64,1.6-29.38-7.21-39.13c-7.34,5.89,0.83,43.68-9.37,38.27c-3.76-3.75-10.32-23.72-13.79-16.97
			c5.08,46-7.33,7.51-25.39,2.97c1.83,21.59,26.22,36.03-11.96,18.14c21.32,32.66,1.26,22.32-21.19,9.02
			c-20.03,6.07,58.89,33.58,2.36,28.73c-9.36,4.24,13.7,9.66,17.68,12.84c1.7,10.96-29.82,2.93-37.42,10.3
			c26.51,10.46,59.42-2.9,15.86,22.99c5.02,6.37,27.91-6.41,26.43,3.18c-38.61,28.71-32.22,24.63,8.12,11.99
			c-13.95,26.17-12.94,28.52,11.99,9.87c4.85,15.66-17.37,24.2-16.88,37.75c11.13-2.19,18.72-18.91,28.32-26.15
			c8.14-2.59-0.02,18.44,5.19,23.7c7.52-5.12,7.07-16.35,13.19-22.77c9,8.08-1.03,39.08,9.65,38.15
			c5.63-27.24-0.38-51.28,22.03-14.8c-2.71-61.91,9.25-0.95,28.22,1.95c2.99-20.48-39.62-50.75,10.24-25.15
			c-24.11-40.2,2.42-13.89,27.47-10.44c-2.75-8.78-35.7-18.44-28.81-27.44c5.21-1.25,27.04,3.59,21.24-4.19
			C173.94,117.82,152.31,110.87,174.53,109.01z"/>
	</g>
</g>
</svg>
